<?xml version="1.0" encoding="UTF-8" standalone="no"?>
<!-- Created with Inkscape (http://www.inkscape.org/) -->

<svg
   xmlns:dc="http://purl.org/dc/elements/1.1/"
   xmlns:cc="http://creativecommons.org/ns#"
   xmlns:rdf="http://www.w3.org/1999/02/22-rdf-syntax-ns#"
   xmlns:svg="http://www.w3.org/2000/svg"
   xmlns="http://www.w3.org/2000/svg"
   xmlns:sodipodi="http://sodipodi.sourceforge.net/DTD/sodipodi-0.dtd"
   xmlns:inkscape="http://www.inkscape.org/namespaces/inkscape"
   width="500"
   height="500"
   id="svg2"
   version="1.1"
   inkscape:version="0.48.1 "
   sodipodi:docname="bank.svg">
  <title
     id="title3589">bank</title>
  <defs
     id="defs4" />
  <sodipodi:namedview
     id="base"
     pagecolor="#ffffff"
     bordercolor="#666666"
     borderopacity="1.0"
     inkscape:pageopacity="0.0"
     inkscape:pageshadow="2"
     inkscape:zoom="0.26649087"
     inkscape:cx="492.79191"
     inkscape:cy="178.71077"
     inkscape:document-units="px"
     inkscape:current-layer="layer1"
     showgrid="false"
     inkscape:window-width="1366"
     inkscape:window-height="715"
     inkscape:window-x="-8"
     inkscape:window-y="-8"
     inkscape:window-maximized="1" />
  <metadata
     id="metadata7">
    <rdf:RDF>
      <cc:Work
         rdf:about="">
        <dc:format>image/svg+xml</dc:format>
        <dc:type
           rdf:resource="http://purl.org/dc/dcmitype/StillImage" />
        <dc:title>bank</dc:title>
      </cc:Work>
    </rdf:RDF>
  </metadata>
  <g
     inkscape:label="Layer 1"
     inkscape:groupmode="layer"
     id="layer1"
     transform="translate(0,-552.36215)">
    <g
       id="Layer_2-97"
       transform="matrix(1.4602777,0,0,1.4723902,-116.1555,563.10493)"
       inkscape:export-xdpi="90"
       inkscape:export-ydpi="90">
	<g
   id="g3286">
		<circle
   d="M 404.89999,161.8 C 404.89999,247.34891 335.5489,316.7 250,316.7 164.4511,316.7 95.100006,247.34891 95.100006,161.8 95.100006,76.251099 164.4511,6.9000092 250,6.9000092 c 85.5489,0 154.89999,69.3510898 154.89999,154.8999908 z"
   style="fill:#95c11f"
   sodipodi:ry="154.89999"
   sodipodi:rx="154.89999"
   sodipodi:cy="161.8"
   sodipodi:cx="250"
   cx="250"
   cy="161.8"
   r="154.89999"
   id="circle3288" />

		<path
   style="fill:#ffffff"
   inkscape:connector-curvature="0"
   d="m 323.2,96 c -4.3,0 -7.2,-0.3 -10.1,0 -12.5,1.4 -21.9,0.8 -25.3,-15.4 -2.6,-12.4 -14.6,-17.8 -28.3,-19.7 0,26.9 -0.1,53.3 0.3,79.6 0,2 3.6,4.6 6.1,5.6 13.6,5.7 28.7,9 40.9,16.8 23.2,14.6 30,51.5 17.2,80.7 -12.1,27.6 -34,41.1 -64.4,43.7 0,8.3 0,16.4 0,25.1 -6.2,0 -11.3,0 -17.6,0 0,-7.8 0,-15.9 0,-24.6 -23.6,-3.5 -44.7,-10.2 -58.8,-30.1 -8.6,-12.2 -12.8,-25.9 -13.4,-41.7 10.4,0 20.4,0 31.1,0 3.2,23.6 13.4,41.7 40.7,46.4 0,-9.7 0,-18.8 0,-27.9 0,-17.6 -0.5,-35.1 0.2,-52.6 0.4,-9.4 -2,-13.7 -11.8,-16.1 -10.7,-2.6 -21.4,-7.3 -30.5,-13.4 -22.4,-15 -28,-37.3 -23.6,-62.8 4.2,-24.5 19.3,-40 41.9,-48.6 7.3,-2.8 15.2,-3.9 23.7,-6.1 0,-7.6 0,-15.4 0,-24 6.2,0 11.6,0 17.8,0 0,8.1 0,15.9 0,24.4 21.2,2.5 40.4,8.1 53,25.9 6.8,10.1 11,21.2 10.9,34.8 z m -63.3,166.3 c 25.6,-3.6 37.1,-17.5 37.9,-45.2 0.7,-24.8 -10.4,-37.5 -37.9,-42.6 0,29 0,58 0,87.8 z M 241.1,61 c -23.8,4.2 -35.6,18.5 -35.1,41.4 0.4,21 12.5,34 35.1,37.3 0,-26.1 0,-52.1 0,-78.7 z"
   id="path3290" />

	</g>

</g>
  </g>
</svg>
