<?xml version="1.0" encoding="utf-8"?>
<!-- Generator: Adobe Illustrator 18.0.0, SVG Export Plug-In . SVG Version: 6.00 Build 0)  -->
<!DOCTYPE svg PUBLIC "-//W3C//DTD SVG 1.1//EN" "http://www.w3.org/Graphics/SVG/1.1/DTD/svg11.dtd">
<svg version="1.1" xmlns="http://www.w3.org/2000/svg" xmlns:xlink="http://www.w3.org/1999/xlink" x="0px" y="0px"
	 viewBox="0 0 500 500" enable-background="new 0 0 500 500" xml:space="preserve">
<g id="Layer_1">
	<g>
		<path d="M97.8,449.8H80.5c-5.5,0-10-4.5-10-10v-60.1c0-5.5,4.5-10,10-10h17.3c5.5,0,10,4.5,10,10v60.1
			C107.8,445.3,103.4,449.8,97.8,449.8z"/>
		<path d="M205.1,449.8h-17.3c-5.5,0-10-4.5-10-10v-60.1c0-5.5,4.5-10,10-10h17.3c5.5,0,10,4.5,10,10v60.1
			C215.1,445.3,210.6,449.8,205.1,449.8z"/>
		<path d="M312.3,449.8h-17.3c-5.5,0-10-4.5-10-10v-60.1c0-5.5,4.5-10,10-10h17.3c5.5,0,10,4.5,10,10v60.1
			C322.3,445.3,317.8,449.8,312.3,449.8z"/>
		<path d="M419.5,449.8h-17.3c-5.5,0-10-4.5-10-10v-60.1c0-5.5,4.5-10,10-10h17.3c5.5,0,10,4.5,10,10v60.1
			C429.5,445.3,425,449.8,419.5,449.8z"/>
	</g>
	<path d="M458.2,481.2H41.8c-2.8,0-5-2.2-5-5V461c0-2.8,2.2-5,5-5h416.4c2.8,0,5,2.2,5,5v15.2C463.2,478.9,461,481.2,458.2,481.2z"
		/>
	<path d="M343.7,294c-2.4-1.1-4.8,0-6.5,2c-13.5,15.8-63.4,26.1-91.8,26.1c-27.7,0-63.8-9.5-85.2-28.5c-1.9-1.7-4.1-3-6.5-1.9
		l-116.4,57c-4.8,2.3-3.1,9.5,2.2,9.5l417.1-0.5c5.3,0,7-7.2,2.2-9.5L343.7,294z"/>
</g>
<g id="Layer_2">
	<g>
		<circle fill="#95C11F" cx="250" cy="161.8" r="154.9"/>
		<path fill="#FFFFFF" d="M323.2,96c-4.3,0-7.2-0.3-10.1,0c-12.5,1.4-21.9,0.8-25.3-15.4c-2.6-12.4-14.6-17.8-28.3-19.7
			c0,26.9-0.1,53.3,0.3,79.6c0,2,3.6,4.6,6.1,5.6c13.6,5.7,28.7,9,40.9,16.8c23.2,14.6,30,51.5,17.2,80.7
			c-12.1,27.6-34,41.1-64.4,43.7c0,8.3,0,16.4,0,25.1c-6.2,0-11.3,0-17.6,0c0-7.8,0-15.9,0-24.6c-23.6-3.5-44.7-10.2-58.8-30.1
			c-8.6-12.2-12.8-25.9-13.4-41.7c10.4,0,20.4,0,31.1,0c3.2,23.6,13.4,41.7,40.7,46.4c0-9.7,0-18.8,0-27.9c0-17.6-0.5-35.1,0.2-52.6
			c0.4-9.4-2-13.7-11.8-16.1c-10.7-2.6-21.4-7.3-30.5-13.4c-22.4-15-28-37.3-23.6-62.8c4.2-24.5,19.3-40,41.9-48.6
			c7.3-2.8,15.2-3.9,23.7-6.1c0-7.6,0-15.4,0-24c6.2,0,11.6,0,17.8,0c0,8.1,0,15.9,0,24.4c21.2,2.5,40.4,8.1,53,25.9
			C319.1,71.3,323.3,82.4,323.2,96z M259.9,262.3c25.6-3.6,37.1-17.5,37.9-45.2c0.7-24.8-10.4-37.5-37.9-42.6
			C259.9,203.5,259.9,232.5,259.9,262.3z M241.1,61c-23.8,4.2-35.6,18.5-35.1,41.4c0.4,21,12.5,34,35.1,37.3
			C241.1,113.6,241.1,87.6,241.1,61z"/>
	</g>
</g>
</svg>
