<?xml version="1.0" encoding="utf-8"?>
<!-- Generator: Adobe Illustrator 18.0.0, SVG Export Plug-In . SVG Version: 6.00 Build 0)  -->
<!DOCTYPE svg PUBLIC "-//W3C//DTD SVG 1.1//EN" "http://www.w3.org/Graphics/SVG/1.1/DTD/svg11.dtd">
<svg version="1.1" id="Layer_1" xmlns="http://www.w3.org/2000/svg" xmlns:xlink="http://www.w3.org/1999/xlink" x="0px" y="0px"
	 viewBox="0 0 500 500" enable-background="new 0 0 500 500" xml:space="preserve">
<path fill="#F49633" d="M299.3,143.5c0.8,1.3,1.4,2.7,2.5,3.8c2,2,4,1.3,4.6-1.5c0.2-0.7,0.3-1.5,0.2-2.3c-1-10,1.7-19.2,4.6-28.6
	c1.6-5.1,2.1-10.5,2.8-15.8c0.2-1.2-0.4-3.2-1.2-3.5c-1-0.5-2.8,0.1-4,0.7c-1.5,0.7-2.7,1.9-4.2,3c-0.3-4.2-0.2-8.1-0.9-11.9
	c-0.7-3.4-2-6.8-3.5-10c-1.4-2.9-2.5-5.6-2.8-8.9c-0.7-6.1-5.2-9.2-10.3-11.3c-5.3-2.2-10.8-1.4-16.1,0.1c-3.3,0.9-6.3,0.9-9.5,0
	c-5.5-1.6-11.1-2.6-16.9-0.8c-7.7,2.4-12.4,8.2-12.6,16.2c-0.1,3.7,0,7.3-2.5,10.4c-0.5,0.6-0.6,1.6-0.6,2.5
	c0.1,11.8-0.3,23.6,0.6,35.3c1.3,17.3,17.3,33.6,34.4,36.1c6.8,1,13.1-0.9,18.6-5c13.8-10.4,22.6-23.6,22.8-41.5
	c0-0.7,0.1-1.4,0.1-2c0.2,0,0.5,0,0.7,0c0,3.8,0.3,7.5-0.1,11.2c-0.8,8.3-3.8,16-8.8,22.7c-2.8,3.7-3.8,7.8-4.1,12.1
	c-0.2,3.3,0.3,6.7,0.5,10.1c-3.9-2.7-4.4-7-4.3-11.8c-16.7,13.8-32.6,12.7-48.2-1.3c-0.5,2.7-0.7,5.4-1.4,8.1
	c-1.5,6.1-5.1,10.5-11,12.9c-6.6,2.8-13.6,4-20.7,4.7c-2.9,0.3-5.8,0.4-8.8,0c2.4-0.7,4.8-1.5,7.3-2.1c5-1.2,10-2.2,15-3.5
	c8.2-2,12-6.6,12.5-15c0.1-1.4,0.1-2.9,0.1-4.4c0.2-5.7-0.4-11-3.7-16.1c-3.7-5.6-5-12.2-5.7-19c-0.5-4.7-1.4-9.3-2.3-13.9
	c-0.3-1.5-1.1-2.9-2-4.1c-0.5-0.7-1.7-1.6-2.1-1.4c-0.8,0.4-1.6,1.4-1.7,2.2c-0.1,3.1-0.4,6.4,0.3,9.4c1.2,5.4,3.5,10.6,4.5,16
	c1,5.2,1.1,10.7,1.7,16c0.2,1.5,0.2,3.1,0.7,4.5c0.4,1,1.4,2.2,2.2,2.4c0.9,0.2,2-0.9,2.9-1.5c0.3-0.2,0.5-0.6,0.8-1.1
	c0.4,3.7-0.7,5.9-2.9,6.4c-2.7,0.6-5.1-0.8-6.1-3.9c-0.7-2.2-1.2-4.7-1.1-7c0.3-7.6-0.9-14.7-4.3-21.6c-3.2-6.7-4.7-13.9-4.2-21.4
	c0.3-4.2,1.6-7.7,5.2-9.7c-0.8-4.6-1.9-9.1-2.3-13.5c-1.9-19.7,7-35.4,24.8-44c2-1,2.8-2,2.8-4.4c-0.1-12.4,7.1-19.9,19.9-21.3
	c5.3-0.6,10.6-0.5,15.7,1c10.9,3.2,15.9,11.3,13.9,22.6c-0.1,0.3-0.1,0.7-0.1,1c22.6,13.4,28.9,31.1,21.3,59.9
	c3.7,0.1,4.7,2.8,5.3,5.8c1,4.7,0.1,9.2-1.1,13.7c-1.7,6-4,11.8-5.4,17.9c-0.9,3.8-0.8,7.9-1.2,11.9c-0.3,2.9-0.6,5.8-1.4,8.5
	c-0.6,2-1.9,3.7-4.4,3.6c-2.4-0.1-3.4-2-4.1-4c-0.4-1.1-0.6-2.3-0.8-3.4C299.2,143.5,299.2,143.5,299.3,143.5z"/>
<path fill="#F49633" d="M386.4,397c5.2,0,10.4,0,15.9,0c-1.1-2.5-2.2-4.8-3.3-7c-4.2-8.9-6.1-18.4-7.6-28.1
	c-3.2-21.3-14.6-36.2-34.6-44.5c-0.4-0.1-0.7-0.3-1-0.7c5.2-0.1,10,1.3,14.6,3.6c6.9,3.5,11.9,8.8,15.7,15.4
	c6.9,12.3,10.8,25.6,13.9,39.2c1.7,7.3,3.5,14.6,7.8,21c2.6,3.9,5.7,7.2,9.6,9.8c5.1,3.6,8.2,8.9,10.5,14.6c8.3,20,0.7,41-18.8,51.9
	c-14.7,8.2-30.4,9.3-46.8,7.3c-4.8-0.6-9.7-0.5-14.5-0.4c-20.4,0.5-40.7-0.6-60.4-6.5c-9-2.7-17.4-6.5-24.6-12.8
	c-0.5-0.5-1-0.9-1.5-1.4c-1.5-1.6-2.7-3.8-4.6-4.7c-3.9-1.8-8.1-2.9-13-4.6c-3.2,0.2-3.8-1.6-4.2-2.1c-0.4,0.5-0.9,0.9-1.1,1.5
	c-2.6,6.9-2.4-3.5-8.7-6.5c-13.5-6.4-27-12.8-40.5-19.3c-2.2-1.1-4-1.3-6.3-0.4c-5.1,2-10.5,3.6-16,2.2c-3-0.8-5.7-2.5-8.5-3.8
	c-0.5-0.3-0.8-1.1-1.5-2c4.7,1.4,8.8,3.1,13,3.7c4.4,0.7,8.8-0.5,13.2-2.8c-9.6-6.1-19.7-9.2-30.7-9.1c-0.1-0.3-0.1-0.5-0.2-0.8
	c1.4-0.4,2.8-1,4.3-1.2c5.5-0.7,11-0.3,16.2,1.8c9.7,4,19.3,8.3,28.8,12.7c14.4,6.5,28.8,13,44.1,17.4c1.1,0.3,2.2,0.5,3.3,0.7
	c0.3,0.1,0.6,0,1.3,0.1c-0.9-3-1.9-5.8-2.6-8.6c-0.7-2.6-1.1-5.3-1.5-8c-0.6-4.4-3.4-6.9-6.9-9c-1-0.6-2.1-1-3.8-1.8
	c5.8,0.1,9.4,2.9,12,6.8c1.3,2,2.4,4.2,3.2,6.4c8.4,24.5,25.4,39,50.7,43.5c9.6,1.7,19.2,2.7,28.9,4c1.9,0.2,3.9,0,5.9-0.3
	c-20.6-7.7-40.4-16.6-56.7-31.8c0.8,0.5,1.6,1,2.5,1.5c21,13.2,43.4,22.6,68,26.5c14.6,2.3,29.2,3.1,43.8-0.6
	c8.9-2.3,16.6-6.7,22.6-13.8c8.3-9.7,9.5-20.9,6.7-32.8c-3.3-14.4-11.1-21.3-27.1-23.9c-3.2-0.5-6.4-0.8-9.6-1.2
	C386.4,397.7,386.4,397.3,386.4,397z"/>
<path fill="#F49633" d="M224.3,219.9c-3.6,3.7-3,10.1-8,12.3c-0.4-0.3-0.8-0.5-1.2-0.8c2.4-4.1,4.8-8.3,7.4-12.3
	c0.4-0.7,2-1.4,2.5-1.2c0.8,0.4,1.7,1.8,1.6,2.6c-0.4,2.9-0.8,5.9-1.8,8.6c-1.4,4.2-3.3,8.3-5.1,12.8c3.4,1.1,4.8,2.9,3.3,5.9
	c4,2.6,4.1,3,2.1,7.5c-1.6,3.5-0.7,7.1,0.3,10.5c0.1,0.5,1.2,0.9,1.8,1c3.7,0.2,7.3,0.5,11,0.4c1.1,0,2.5-0.8,3.2-1.6
	c5.7-6.7,11.6-13.3,16.7-20.4c11.8-16.4,22.2-33.7,30.6-52.1c4.7-10.2,8.3-20.8,8.3-32.3c0-0.1,0.2-0.3,0.3-0.6
	c3.2,2.3,4.5,5.6,4.2,9.1c-0.3,4.7-0.9,9.6-2.4,14c-5,14.8-12.9,28.1-21.2,41.1c-9.5,14.9-19.3,29.5-32.2,41.7
	c-5.3,5-10.9,9.5-16.5,14.3c-0.5,0.5-1.2,0.8-2.1,0.9c2.9-3,5.8-6.1,9.1-9.5c-4.3-0.2-8.1-0.4-11.9-0.7c-0.1,3.2-0.1,6.3-0.5,9.3
	c-0.8,6.5-3.3,12.3-7.4,17.5c-2.5,3.1-4.8,6.4-7,9.7c-6.1,9-11.7,18.3-18.2,27c-10.6,14.2-24.6,24.3-41.5,30.1
	c-7.8,2.7-12.3,1-16.9-5.9c-8-11.9-11.3-24.9-7.4-39c2.6-9.4,6-18.5,8.8-27.8c5-16.5,7.6-33.4,9.8-50.5c0.1-0.7,0.2-1.4,0.3-2
	c0-0.1,0.2-0.2,0.7-0.6c0.4,2.5,0.9,4.7,1,6.9c0.4,14.4-0.7,28.7-4,42.8c-1.1,4.8-4,9.1-5.4,13.8c-2.5,8.7-5.1,17.4-6.5,26.3
	c-1.5,9.5,2,18,8.8,25c3.1,3.2,7,4.1,11.3,3c8.7-2.3,16.2-6.8,23.4-12c10.1-7.3,17.4-17.3,24.9-27.1c2.9-3.8,5.6-7.8,8.3-11.7
	c2.5-3.8,2.4-3.8-0.3-7.6c3.5,0.3,6.4-0.5,8.7-2.9c2.9-3.1,4.3-7,4.8-11.1c0.9-7.6,1.4-15.3,2.1-23c0.2-2.4,0.7-4.7,0.9-7.1
	c0.1-0.7-0.1-1.6-0.6-2c-0.2-0.2-1.4,0-1.8,0.4c-1.1,1-2.4,2.1-2.8,3.5c-1.3,4-1.7,8.2,0.4,12.2c0.8,1.5,0.2,3-1.3,2.8
	c-5.9-0.6-10,2.6-14.1,6.1c1.8-5.4,6.2-8.1,10.4-10c0-3.5,0-6.6,0-10.3c-7.7,1-15.2,2.1-22.8,3.1c0,0.1,0,0,0-0.1
	c3.3-1.8,2-4.7,1.8-7.4c-0.3-6.1,0.6-12.1,2.6-17.9c0.8-2.4,1.2-4.9,1.8-7.3c-0.3-0.1-0.6-0.2-0.8-0.3c-0.3,0.5-0.8,0.9-1,1.4
	c-1.3,3-2.5,6-3.9,8.9c-2.5,4.9-3.2,10.2-3.2,15.6c0.1,9.7,0,19.5,0,29.2c0,2,0.3,4.1,0.6,6.1c0.7,4.5,3.6,7.2,7.6,8.9
	c1.4,0.6,2.8,1,4.8,1.7c-5.7,2.1-10.6,2.3-15.3-1.7c-3.3,2.5-6.7,4.9-9.8,7.7c-4.7,4.3-10.3,6.4-16.4,7.2c-6.2,0.8-12.4,1.4-18.3,2
	c2.4-2.2,5.7-4.2,9.5-4.3c8.1-0.2,14.8-4,21.2-8.3c10.6-7.2,10.5-7.3,10.9-20c0.3-9.1,0.7-18.3,1.1-27.4c0.3-7.3,2.3-14.1,5.8-20.5
	c1.3-2.3,2.3-4.8,3.8-7c0.7-1,2.3-1.4,3.5-2.1c0.6,1.2,1.8,2.5,1.7,3.6c-0.3,3.4-1,6.7-1.9,10c-1.4,5-2.8,9.9-1.9,15.1
	c0.3,1.6,0.5,3.1,2.8,2.6c1.9-0.4,4.1-0.3,3.7-3.3c-0.2-1.1-0.1-2.2-0.3-3.3c-0.7-5.7,0.1-11.1,2.5-16.2c1.5-3.2,3-6.5,4.3-9.8
	c0.4-1,0.1-2.3,0.1-3.4c-0.2,0-0.4-0.1-0.6-0.1c-1.9,2.8-3.8,5.6-5.7,8.4c-0.3-0.2-0.5-0.3-0.8-0.5c1.6-3.4,3.1-6.8,4.9-10
	c0.3-0.6,2-1,2.6-0.7c1.1,0.6,2.3,1.7,2.5,2.8c0.3,1.5,0,3.3-0.6,4.7c-1.1,3-2.3,6.1-3.8,8.9c-2.9,5.5-3.3,11.4-2.8,17.5
	c0.2,3.1,0.8,3.4,3.9,3.1c2.2-0.2,4.5,0.2,6.5-0.4c1.3-0.4,2.3-2,3.2-3.1c0.1-0.1-0.7-1.5-1.3-1.7c-1.4-0.3-3.1-1.8-4.2,0.4
	c-0.1,0.3-0.3,0.6-0.2,0.4c-1-1.7-1.9-3.6-3.1-5.4c-1.1-1.7-2.3-3.4-1-5.4c2,2.2,3.8,4.5,5.9,6.3c1.5,1.3,3.5,2.2,5.4,2.8
	c0.8,0.2,2.4-0.5,2.9-1.3c0.7-1.3-0.5-1.9-1.7-2.5c-1.5-0.9-3.1-2-3.9-3.4c-1.8-2.9-3.2-6.1-4.7-9.2c0.2-0.1,0.4-0.3,0.5-0.4
	c1.9,2.5,3.7,5,5.6,7.5C221.8,235.4,226.1,224.6,224.3,219.9z"/>
<path fill="#F49633" d="M209.9,392.7c-7,1.5-14.6,1.7-21.8-2.3c-5.4-3-10.7-6.1-16.1-8.9c-6.2-3.2-12.5-2.8-18.8-0.1
	c-1.2,0.5-2.4,1.3-3.5,2.1c-2.1,1.7-2,3.4,0.6,4c3.5,0.9,7.2,1.2,10.8,1.8c0.6,0.1,1.2-0.1,1.8-0.1c0.1,0.2,0.1,0.5,0.2,0.7
	c-1.9,0.4-3.9,1.2-5.8,1.1c-5-0.2-10-0.7-15-1.3c-8.8-0.9-17.6-1.3-26.2,1.4c-2.6,0.8-5,2.3-7.8,3.6c3.2,3,7.3,3.9,8.7,8.1
	c-0.8-0.2-1.5-0.5-2.3-0.6c-4.4-1-8.8-2.4-13.2-2.7c-11.1-1-20.7,5.3-24.7,16.5c-5,14.2-2.6,27.5,7.3,39c5.4,6.3,15.5,10.3,23.9,9.9
	c-1.1-0.9-1.8-1.6-2.6-2.3c-8.7-7.7-16.4-16.2-20.5-27.4c-1.8-5-3.1-10.2-1.8-15.6c0.4-1.7,1.4-3.3,2.7-4.7
	c0.4,3.8,0.4,7.8,1.3,11.5c3.8,16,14.1,26.7,28.7,33.3c19,8.6,39.1,10.8,59.6,8.6c20.1-2.1,38.5-8.9,55.2-22
	c-0.6,1.1-0.8,1.6-1.1,1.9c-14.2,16.9-31.9,27.1-54.2,29.2c-14.3,1.3-28.5,1.2-42.6-1.5c-0.9-0.2-1.9,0-2.8,0.1
	c-11.6,0.7-23-0.5-34-4.6c-15.7-5.9-23.8-17.9-26.5-34c-1.6-9.4-0.6-18.4,4.5-26.7c5-8.2,12.3-13.4,21.7-15.5c1-0.2,2.2-0.6,3-1.3
	c11-9.4,23.7-12.4,37.8-9.3c1.4,0.3,2.1,0,3-1c6.3-6.9,14.3-9.7,23.5-9.1c2,0.1,3.2-0.3,4.6-1.8c3.7-4.3,8.3-7.3,14-8.5
	c3.9-0.8,7.5,0,11,1.4c3.5,1.5,7.1,3,10.3,5.2c12,7.9,25,9.4,38.6,6.2c6.3-1.4,12.3-4,18.4-6c0.4-0.1,0.9-0.3,1.4-0.3
	c-6.5,5.1-13.7,8.6-21.8,10c-14.5,2.6-27.7-1.6-40.4-8.2c-1.3-0.7-2.7-1.3-3.8-2.2c-4.1-3.4-8.6-3.2-13-1.1
	c-2.8,1.3-5.3,3.4-7.7,5.3c-1.4,1.1-1.2,2.5,0.1,4c5.1,5.4,11.4,8.4,18.3,10.3C198.6,390.3,204.6,391.5,209.9,392.7z"/>
<path fill="#F49633" d="M284.8,337.4c2.2,0,4,0.1,5.8,0c5.1-0.5,10.2-1.2,15.3-1.7c1.9-0.2,2.8-1,3.6-2.7
	c4.8-10.8,7.8-22.2,10.2-33.8c1.5-7.2,2.7-14.4,4.1-21.5c0,19.8-3.5,39-11.4,57.7c3.3-1,5.9-2,7.3-5.2c4-9.3,5.9-19.1,7.5-28.9
	c3.3-19.7,4.9-39.5,3.7-59.5c-0.8-13-1.9-26.1-2.9-39.1c0-0.4,0-0.8,0.2-1.3c4.4,10.8,4.2,22.4,5.5,33.8c0.3,0,0.7,0.1,1,0.1
	c0.6-1.3,1.4-2.6,1.6-4c1-7.3,2.3-14.7,2.7-22.1c0.3-5.3,0-10.8-0.8-16.1c-1.4-8.9-5.7-16.4-13.6-21.7c4.5,0.2,8.6,2.7,11.5,6.8
	c3.3,4.7,4.9,10,5.5,15.6c1.6,16,0.2,31.7-3.6,47.3c-0.3,1.4-0.7,2.9-1.4,4.1c-2.4,4.3-1.1,8.8-1.5,14c6.1-4.7,9.7-10.4,12.7-16.5
	c2.9-6,5.3-12.3,8.3-18.5c-0.6,2.7-1,5.4-1.7,8.1c-3.2,11.6-8.9,22-16.7,31.1c-1.4,1.6-1.9,3.2-1.9,5.3c-0.1,19.7-1.8,39.2-7.1,58.3
	c-0.3,1-0.2,2.1-0.4,3.8c1.7-0.6,3-0.7,3.9-1.4c2-1.4,4.3-2.8,5.6-4.8c3.3-5.2,8.3-5.9,13.6-5.8c5.3,0.1,9.9,2.5,13.8,6
	c8.5,7.7,13,17.7,16,28.4c2.5,8.9,4.6,18,7.3,26.9c1.3,4.4,3.6,8.6,4.9,13.3c-1.9-2.6-4-5.1-5.6-7.9c-4.8-8.5-7.1-17.9-9.2-27.3
	c-1.4-6.3-2.7-12.5-6.1-18.1c-4-6.6-9.4-11.6-16.4-15.1c-6.2-3-12.4-1.8-17.2,2.4c-8.4,7.3-18.4,11.7-29.5,13.2
	c-9.6,1.3-19.2,2.4-28.8,1.1c-3.3-0.4-6.5-1.2-9.7-2.3c-9.1-3-18-4.2-27.3-0.5c-5.9,2.3-12.1,3.9-18.5,1.8c-0.2-0.1-0.4-0.2-1.1-0.6
	c1.5-0.3,2.6-0.4,3.6-0.7c5.3-1.8,10.6-3.7,15.9-5.5c2.1-0.7,4.2-1.3,6.4-1.5c6.6-0.4,13.1-0.1,19.4,2.4c6.5,2.6,11.6,0.8,16.1-4.6
	c8.5-10.3,14.2-22.1,18.4-34.6c4.7-14,7.4-28.6,9.6-43.2c2.3-14.9,4.2-29.9,6.3-44.9c0-0.1,0.2-0.3,0.6-1.1c0,3.4,0,6.1,0,8.8
	c-0.1,23.8-2.6,47.2-9.4,70.1c-4.2,14.3-9.5,28.2-17.8,40.7C290.8,329.9,287.8,333.3,284.8,337.4z"/>
<path fill="#F49633" d="M243.5,400.8c18.6-7.5,36.5-15.8,49.1-32.3c0.9-1.2,1.6-2.7,2.5-4.4c-6.8-1.5-13.1-3.1-19.4-4.3
	c-1.5-0.3-3.5,0.1-4.9,0.8c-10.9,5.3-22.6,7.8-34.2,10.6c-1.7,0.4-3.6,0.4-5.3,0.8c-4.3,0.8-7.3-1.4-10.4-3.9
	c-6.8-5.6-8-11.3-3.9-19.1c0.9-1.7,1.8-3.3,2.8-4.9c0.9-1.6,2.2-1.8,3.2-0.3c1.5,2.3,3.8,2.8,6.1,2.3c5.7-1.2,11.5-2.1,16.8-4.2
	c4.6-1.8,7.8,2.3,7,6.2c-1.6,8.1-9.8,15.2-18.6,15.7c-2.1,0.1-4.3,0.1-6.4,0c-5.5-0.2-9-4.7-8.1-10.1c0.3-2.1,0.7-4.1,0.6-6.3
	c-2.1,1.5-2.5,3.9-2.8,6c-1.2,7.9,4,14,12,14.1c8.4,0,16.4-2.4,24.1-5.4c4.5-1.8,8.9-3.9,13.3-5.9c5.4-2.4,10.7-2.6,16.4-0.8
	c6.6,2,13.4,3.4,20.2,4.5c13.7,2.3,27.5,4.2,41.5,4c9.8-0.1,19.3-1.9,28.8-4.4c0.6-0.2,1.3-0.3,2.3,0.1c-1.6,1.2-3.2,2.6-4.9,3.7
	c-7.6,4.6-16.2,5.8-24.9,6.2c-10.6,0.5-21.2-0.4-31.6-2.4c-1.6-0.3-2.4,0.1-3.3,1.5c-9.1,14.4-21.6,25.2-36.2,33.7
	c-1,0.6-3.2,0.8-3.5,0.4c-1.1-1.9,1-2.1,2-2.7c11.9-7.4,22-16.7,29.7-28.6c0.2-0.3,0.4-0.6,0.5-0.9c0.5-1.7,3.1-3.2,1.2-5.1
	c-1.3-1.4-6.2-0.3-7.6,1.4c-9.8,11.7-21.1,21.7-35.1,28.1c-3.5,1.6-7.1,2.9-10.8,4.1C249.1,399.8,246.3,400.2,243.5,400.8z
	 M231.2,361.3c7-0.4,12.2-3.8,16-9.6c1.1-1.7,1.6-3.8,0-5.5c-1.6-1.7-3.2-0.1-4.6,0.7c-3.4,2.2-7,3.1-11,2.5
	c-2.2-0.3-4.4-0.7-6.6-0.9c-0.6-0.1-1.6,0.1-1.9,0.5c-3.2,4.9-0.7,10.7,5,11.8C229.1,361.2,230.1,361.2,231.2,361.3z"/>
<path fill="#F49633" d="M341.6,178.5c14.7,3.6,24.2,11.5,26.7,25.8c1.1,6.2,1.8,12.3,0.7,18.6c-0.1,0.7,0.1,1.5,0.5,2.1
	c5,7.3,6.5,15.5,6.2,24.1c-0.1,4.2-0.9,8.3-1.2,12.5c-0.1,1,0.1,2.4,0.7,3.2c4.9,6.7,6.4,14.3,5.6,22.3c-0.3,2.9-1.1,5.7-1.5,8.6
	c-0.1,0.8,0.1,1.9,0.6,2.5c3.4,4.3,5.2,8.7,2.8,14.2c-1.1,2.6-0.5,5,0.9,7.7c1.3,2.5,1,5.8,1.1,8.8c-4.2-6-7-12.3-5.3-19.7
	c0.1-0.6,0.2-1.2,0.1-1.8c-0.3-1.1-0.7-2.3-1.1-3.4c-1,0.6-2.2,1-3,1.8c-5.8,6.1-13.1,7.6-21.1,7.1c-0.2,0-0.4-0.3-0.6-0.4
	c9.7-3,19.8-5.5,21.9-17.6c1.4-8.1,0.7-16.1-4.1-23.1c-11.8,11.2-20.8,24-28.1,38.1c-0.2-0.1-0.5-0.3-0.7-0.4
	c0.4-1.2,0.8-2.5,1.2-3.7c3.5-9.6,7.7-18.7,14.8-26.4c7.6-8.1,11.7-18,12.2-29.2c0.2-3.4-0.3-6.8-0.9-10.1c-0.3-1.7-1.7-3.1-3-4.6
	c-1.7,12.1-6.7,22.6-13.5,32.3c1.5-5.2,3.1-10.3,4.5-15.6c3.4-12.7,5.9-25.6,5.7-38.9c-0.1-12.6-4.9-22.7-15.3-29.9
	C346.5,181.9,344.3,180.4,341.6,178.5z"/>
<path fill="#F49633" d="M359.9,396.4c1.4,1.1,2.4,1.9,3.4,2.8c5.3-3,10.7-3,15.9,0.3c2.3,1.5,3.6,3.8,3.3,7.2
	c-1.2-0.6-2.1-0.9-2.9-1.4c-4.6-3-9.4-4.4-14.8-1.9c-0.5,0.2-1.5-0.1-1.9-0.5c-4.6-4.4-9.9-5.7-16.1-3.7c-6.1,2-12.2,3.9-18.3,5.8
	c-3.2,1-6.2,0.5-9.2-0.9c-2.6-1.3-5.2-2.5-7.9-3.6c-8.6-3.3-14.8-1.2-19.9,6.4c-0.5,0.8-0.9,1.8-1.6,2.3c-1.3,1-2.8,1.8-4.2,2.7
	c-0.2-0.2-0.4-0.5-0.6-0.7c2-4.2,3.5-8.7,6.2-12.5c1.7-2.4,5.1-3.5,7.7-5.2c0.7-0.4,1.6-0.7,2.1-1.3c6.3-7.1,14.2-11,23.5-12.4
	c7.9-1.2,16-3,23.9-1.2c5.2,1.2,10.2,2.7,15.7,2.8c2.6,0,5.2,1.8,7.8,2.8c-0.1,0.2-0.1,0.4-0.2,0.6c-2.4-0.4-4.8-0.9-7.2-1.3
	c-5.1-0.7-9.9,0.2-14.6,2.6c-5.9,3.1-12.1,5.9-18.2,8.6c-1.6,0.7-3.6,0.7-5.6,0.7c10.2-1.2,16.5-9.5,25.5-13.5c-1.7-0.4-3.3-1-5-1.1
	c-12-1-23.7,0.6-34.7,5.8c-2.9,1.4-5.6,3.2-7.1,6.8c1.3,0.5,2.6,1,3.8,1.4c4.8,1.8,9.5,4,14.4,5.4c4.5,1.3,9.1,0.6,13.4-1.7
	c6-3.1,12.3-4.5,19-4.1c0.8,0,1.7-0.4,2.6-0.8c4.5-1.9,8.8-4.3,13.4-5.5c6.6-1.7,12.8-0.4,18,4.6c-4.9-2.2-10.1-2.9-15.3-2.2
	C369.2,391.3,363.8,391.7,359.9,396.4z"/>
<path fill="#F49633" d="M258.3,195.8c-5.6-1.7-11.2-3.5-16.8-5c-17.8-4.5-35.8-7.3-54.2-6.3c-3.5,0.2-7,0.7-10.4,1.4
	c-8.7,1.6-14.9,6.7-19.5,14.1c-5.6,9-8.6,18.9-11.2,29.1c0.1-1.8,0.2-3.5,0.3-5.3c0.2-1.9,0.4-3.7,0.7-5.6
	c1.8-10.1,5.3-19.4,12.4-27.1c7.2-7.8,16.4-11.5,26.7-11.9c24.5-1,48,3.3,69.8,14.9c0.8,0.4,1.5,0.9,2.3,1.4
	C258.4,195.7,258.4,195.7,258.3,195.8z"/>
<path fill="#F49633" d="M324.9,190.1c-2.2-8.9-5.2-17.3-12.6-23.5c0.2-0.3,0.3-0.5,0.5-0.8c1.3,0.2,3-0.1,3.9,0.6
	c2.2,1.7,4.6,3.5,5.9,5.8C325.7,177.6,325.7,183.8,324.9,190.1z"/>
</svg>
