<?xml version="1.0" encoding="utf-8"?>
<!-- Generator: Adobe Illustrator 18.0.0, SVG Export Plug-In . SVG Version: 6.00 Build 0)  -->
<!DOCTYPE svg PUBLIC "-//W3C//DTD SVG 1.1//EN" "http://www.w3.org/Graphics/SVG/1.1/DTD/svg11.dtd">
<svg version="1.1" id="Layer_1" xmlns="http://www.w3.org/2000/svg" xmlns:xlink="http://www.w3.org/1999/xlink" x="0px" y="0px"
	 viewBox="0 0 500 500" enable-background="new 0 0 500 500" xml:space="preserve">
<g>
	<path fill="#F9B233" stroke="#AD7923" stroke-width="5" stroke-miterlimit="10" d="M231.1,453.7c-41.3-4.3-77.9-19.4-110.2-45.3
		c-1.7,2-3.3,3.8-4.8,5.7c-2.7,3.2-5.3,6.3-7.9,9.6c-1.2,1.5-2.6,2.3-4.6,2.2c-8.4-0.3-16.9-0.5-25.3-0.7c-0.4,0-0.8-0.1-1.4-0.2
		c-0.1-0.8-0.2-1.6-0.2-2.4c-0.2-7.2-0.3-14.4-0.6-21.6c-0.1-3.7,1.3-6.4,4.2-8.5c3.7-2.8,7.2-5.7,10.8-8.6c0.8-0.7,1.6-1.4,2.6-2.2
		c-27.1-32.6-42.9-69.8-47.5-112c-4.1,0.3-8,0.7-11.9,1c-2.4,0.2-4.8,0.4-7.3,0.7c-1.8,0.2-3.3-0.4-4.6-1.7
		c-5.2-5.5-10.4-10.9-15.6-16.4c-0.8-0.9-1.5-1.9-2.3-3c0.6-0.7,1.1-1.3,1.7-1.9c5.1-5.4,10.3-10.8,15.4-16.2
		c1.7-1.8,3.6-2.6,6.1-2.3c5.4,0.5,10.8,0.9,16.2,1.3c0.6,0,1.1,0,1.9,0c4.1-42.9,19.9-80.9,47.4-114.2c-2.1-1.8-4-3.4-5.9-5
		c-2.6-2.2-5.2-4.4-7.8-6.6c-1.6-1.3-2.3-2.9-2.2-4.9c0.2-7.7,0.3-15.4,0.5-23.1c0.1-2.5,0.6-3,3.1-3c7.7-0.2,15.4-0.3,23.1-0.5
		c2-0.1,3.6,0.6,4.9,2.2c3.1,3.7,6.2,7.3,9.2,11c0.8,0.9,1.6,1.8,2.5,3c32.2-26,68.8-41.1,110.2-45.4c-0.1-2-0.2-3.9-0.4-5.8
		c-0.3-4-0.6-7.9-0.9-11.9c-0.1-1.8,0.4-3.3,1.7-4.6c6.1-5.8,12.2-11.6,18.3-17.5c0.2-0.2,0.4-0.3,0.7-0.5c0.3,0.2,0.6,0.4,0.9,0.7
		c5.8,5.5,11.6,11.1,17.5,16.6c1.9,1.8,2.6,3.8,2.3,6.3c-0.5,4.7-0.8,9.4-1.2,14.1c-0.1,0.7-0.1,1.4-0.1,2.4
		c41.8,4.1,78.9,19.4,111.7,46c2.9-3.5,5.7-6.9,8.5-10.4c0.7-0.8,1.3-1.7,2-2.5c1.8-1.8,3.9-2.8,6.5-2.8c1.1,0,2.1,0,3.2,0.1
		c5.8,0.2,11.7,0.3,17.5,0.5c0.7,0,1.5,0,2.2,0.1c1.8,0.2,2.2,0.7,2.3,2.5c0.1,2.4,0.2,4.9,0.2,7.3c0.1,5.4,0.1,10.9,0.3,16.3
		c0.1,2.1-0.7,3.7-2.3,5.1c-3.8,3.1-7.5,6.3-11.2,9.4c-0.6,0.5-1.2,1.1-1.9,1.7c27.2,33.1,42.8,70.8,46.9,113.6
		c3.8-0.3,7.3-0.6,10.8-0.9c2.3-0.2,4.5-0.4,6.8-0.7c1.6-0.2,3.1,0.2,4.2,1.4c5.2,5.6,10.4,11.1,15.6,16.7c0.8,0.9,1.5,1.9,2.4,3
		c-0.6,0.7-1.1,1.3-1.7,1.9c-5.1,5.4-10.3,10.8-15.4,16.3c-1.8,2-3.9,2.6-6.5,2.3c-4.7-0.6-9.4-0.9-14-1.3c-0.7-0.1-1.4,0-2.4,0
		c-2.3,20.5-7.2,40.3-15.3,59.3c-8.1,19-18.9,36.4-32.2,52.4c0.7,0.6,1.3,1.2,2,1.7c4,3.4,8.1,6.8,12.2,10.1
		c1.6,1.3,2.4,2.8,2.3,4.8c-0.3,8.3-0.5,16.5-0.8,24.8c0,0.4-0.1,0.8-0.1,1.4c-0.6,0.1-1.2,0.2-1.8,0.2c-7.9,0.2-15.9,0.3-23.8,0.5
		c-2.4,0.1-4.2-0.9-5.6-2.7c-3.3-4-6.6-8-9.9-12c-0.5-0.6-1.1-1.2-1.7-2c-32.5,26-69.4,41.1-111,45.2c0.3,3.9,0.6,7.5,0.9,11.1
		c0.2,2.7,0.5,5.5,0.7,8.2c0.2,2-0.5,3.6-2,5c-5.4,5.1-10.8,10.3-16.2,15.4c-0.8,0.8-1.8,1.4-2.7,2.1c-0.4-0.3-0.7-0.5-1-0.8
		c-5.9-5.6-11.7-11.2-17.6-16.8c-1.5-1.4-2.1-3-1.9-5c0.5-5.7,1-11.3,1.4-17C231,455.5,231,454.8,231.1,453.7z M187.4,195.5
		c-22.6-18.9-45-37.7-67.7-56.6c-23,27.9-36.3,59.5-39.6,95.6c28.9,2.6,57.5,5.1,86.3,7.7c0.3-1.1,0.7-2.1,0.9-3.1
		c1.2-4.1,2.4-8.3,3.5-12.4c2.9-11.2,8-21.2,15.6-29.9C186.7,196.4,187,196,187.4,195.5z M313.6,196.8c10.9,13.4,17.1,28.4,19,45.4
		c29.7-2.6,59.2-5.3,88.9-7.9c-3.5-35.8-16.5-67.2-39.2-94.9C359.3,158.6,336.5,177.7,313.6,196.8z M313.7,303.2
		c22.6,18.9,45.1,37.7,67.7,56.6c1.9-2.3,3.8-4.4,5.4-6.6c14.6-19.7,24.7-41.5,31.2-65.1c1.7-6.1,2.8-12.3,2.8-18.7
		c0-0.9-0.1-1.9-0.2-2.9c-29.5-2.6-58.8-5.2-88.2-7.8c-1,8.3-3,16.2-6.2,23.7C323.2,289.9,318.9,296.7,313.7,303.2z M359.4,116.7
		c-0.5-0.4-0.9-0.6-1.3-0.9c-2-1.6-4-3.3-6.1-4.8c-18.8-13.4-39.5-22.8-61.7-28.9c-6.6-1.8-13.3-3.1-20.1-3.3
		c-1.3,0-2.5,0.1-3.8,0.2c-2.6,29.7-5.3,59-7.9,88.5c16.3,1.9,30.7,7.8,43.4,17.9C321.1,162.4,340.2,139.7,359.4,116.7z
		 M167.5,258.7c-29.2,2.6-58,5.2-87.1,7.7c3.9,35.3,17,66.2,39.7,93.3c22.4-18.7,44.5-37.3,66.8-55.8
		C175.8,290.7,169.5,275.7,167.5,258.7z M142.6,116.3c18.9,22.6,37.6,45,56.1,67.1c7.2-3.6,13.9-7.5,21.1-10.3
		c7.1-2.8,14.6-4.5,22.1-6.7c-2.6-29.2-5.2-58.4-7.8-87.8c-15.8,1.6-30.9,5.2-45.5,10.8C172,95.9,156.8,104.9,142.6,116.3z
		 M266.2,419.6c34.7-3.3,65.2-15.9,92.3-37.4c-18.9-22.6-37.7-45.1-56.5-67.6c-12.8,10.2-27.3,16.1-43.5,18
		C261.1,361.7,263.6,390.5,266.2,419.6z M142.8,382c27,21.5,57.3,34.1,91.6,37.5c2.6-28.9,5.1-57.4,7.6-85.8
		c-7.8-2.4-15.5-4.1-22.8-7.1c-7.2-2.9-14-7-21.2-10.6C179.6,337.9,161.3,359.9,142.8,382z M250,187.5c-34.1-0.3-62.1,28.7-62.3,62
		c-0.2,33,26.1,63.1,62.4,63.2c36,0.1,63-29.4,62.9-62.4C312.9,215.3,285,187.5,250,187.5z"/>
	<path fill="#F9B233" stroke="#AD7923" stroke-width="5" stroke-miterlimit="10" d="M250.7,267.5c-10.2,0-17.8-7.7-17.8-17.9
		c0.1-9.9,8-17.7,17.8-17.7c10,0.1,17.7,7.8,17.7,17.8C268.4,260.1,261,267.5,250.7,267.5z"/>
	<path fill="#F9B233" stroke="#AD7923" stroke-width="5" stroke-miterlimit="10" d="M247,305.1c-11-4.7-21.7-9.4-32.7-14.1
		c0.6-0.8,1.1-1.5,1.7-2.1c5.8-5.9,11.7-11.7,17.5-17.5c1.2-1.3,2.5-1.5,4.1-0.8c2,0.9,4.1,1.5,6.1,2.3c2.7,1.1,4,3.1,3.9,6
		c-0.2,8.1-0.3,16.2-0.5,24.3C247.2,303.6,247.1,304.1,247,305.1z"/>
	<path fill="#F9B233" stroke="#AD7923" stroke-width="5" stroke-miterlimit="10" d="M247,194.9c0.1,1.2,0.2,1.9,0.2,2.6
		c0,8.2,0,16.4,0,24.6c0,2.6-0.2,2.9-2.5,3.8c-2.3,0.9-4.5,1.8-6.7,2.8c-1.8,0.8-3.3,0.6-4.8-0.9c-6.1-6.2-12.3-12.3-18.4-18.4
		c-0.3-0.3-0.5-0.6-1.1-1.2C224.7,203.8,235.7,199.4,247,194.9z"/>
	<path fill="#F9B233" stroke="#AD7923" stroke-width="5" stroke-miterlimit="10" d="M287.6,291.2c-11.1,4.4-22,8.7-33.2,13.2
		c-0.1-0.9-0.3-1.6-0.3-2.2c0-8.4,0-16.9,0-25.3c0-1.7,0.7-2.7,2.3-3.3c2.3-0.9,4.7-1.8,7-2.8c1.9-0.8,3.5-0.6,5,1
		c5.8,6,11.8,11.8,17.7,17.7C286.5,290,286.9,290.5,287.6,291.2z"/>
	<path fill="#F9B233" stroke="#AD7923" stroke-width="5" stroke-miterlimit="10" d="M209.3,287.4c-4.4-11.1-8.7-22-13.1-33.1
		c1.2-0.1,2-0.2,2.9-0.2c7.9,0,15.7-0.1,23.6-0.1c3.3,0,3.6,0.2,4.8,3.3c0.8,2.1,1.7,4.2,2.6,6.3c0.7,1.6,0.5,3-0.9,4.4
		c-6.1,6-12,12-18.1,18C210.6,286.4,210,286.7,209.3,287.4z"/>
	<path fill="#F9B233" stroke="#AD7923" stroke-width="5" stroke-miterlimit="10" d="M254.7,195.2c1.8,0.1,27.5,11,32.7,13.8
		c-0.3,0.4-0.6,0.9-1,1.3c-5.8,5.9-11.7,11.7-17.5,17.6c-1.6,1.7-3.2,2.1-5.4,1.1c-1.8-0.8-3.8-1.4-5.7-2.2c-2.5-1-3.8-2.9-3.7-5.7
		c0.2-8.4,0.3-16.8,0.4-25.3C254.5,195.6,254.6,195.4,254.7,195.2z"/>
	<path fill="#F9B233" stroke="#AD7923" stroke-width="5" stroke-miterlimit="10" d="M195.5,245.8c4.8-11,9.4-21.7,14.1-32.6
		c0.6,0.4,1.1,0.7,1.4,1.1c6,5.9,11.9,11.9,17.9,17.8c1.4,1.4,1.7,2.8,0.9,4.6c-1,2.4-2,4.8-3,7.2c-0.6,1.5-1.6,2.3-3.3,2.2
		c-8.7-0.1-17.3,0-26,0C197,246.1,196.5,245.9,195.5,245.8z"/>
	<path fill="#F9B233" stroke="#AD7923" stroke-width="5" stroke-miterlimit="10" d="M291.6,287.1c-0.8-0.8-1.5-1.3-2.1-1.9
		c-5.6-5.5-11.2-11.1-16.7-16.7c-2.1-2.1-2.2-2.7-1-5.4c1-2.2,1.9-4.5,2.9-6.7c0.6-1.4,1.5-2.2,3.2-2.2c8.9,0,17.8,0,26.8,0
		c0.3,0,0.6,0.1,0.9,0.2C305.2,256.3,293.8,283.2,291.6,287.1z"/>
	<path fill="#F9B233" stroke="#AD7923" stroke-width="5" stroke-miterlimit="10" d="M292.6,213.2c4.4,11.1,8.7,22,13.2,33.2
		c-0.9,0.1-1.5,0.2-2.1,0.2c-8.4,0-16.9,0-25.3,0c-2.4,0-2.7-0.2-3.6-2.5c-1-2.4-1.9-4.8-2.9-7.2c-0.6-1.5-0.5-2.7,0.7-4
		c6.4-6.3,12.7-12.7,19-19.1C291.8,213.7,292.1,213.6,292.6,213.2z"/>
</g>
</svg>
