<?xml version="1.0" encoding="utf-8"?>
<!-- Generator: Adobe Illustrator 18.0.0, SVG Export Plug-In . SVG Version: 6.00 Build 0)  -->
<!DOCTYPE svg PUBLIC "-//W3C//DTD SVG 1.1//EN" "http://www.w3.org/Graphics/SVG/1.1/DTD/svg11.dtd">
<svg version="1.1" xmlns="http://www.w3.org/2000/svg" xmlns:xlink="http://www.w3.org/1999/xlink" x="0px" y="0px"
	 viewBox="0 0 500 500" enable-background="new 0 0 500 500" xml:space="preserve">
<g id="Layer_2">
</g>
<g id="Layer_1">
	<path fill="#009FE3" d="M452.1,433.8c0,6.4,0.1,11.7,0,17c-0.2,7.3-2.9,10.1-10,10.1c-6.8,0.1-13.6,0.1-20.4,0
		c-6.5-0.1-9.4-2.6-9.7-9.1c-0.3-5.7-0.1-11.4-0.1-17.5c-54.2,0-107.9,0-162.5,0c0,5.3,0,10.8,0,16.2c-0.1,7.9-2.4,10.4-10.1,10.5
		c-6.6,0.1-13.2,0.1-19.8,0c-7.2-0.1-9.6-2.4-9.7-9.4c-0.1-5.5,0-11,0-17.7c-6.6,0-12.9,0-19.1,0c-13,0-16.8-3.6-16.7-16.6
		c0.1-7.1-1.6-14.5,3.8-20.7c1-1.1,0.4-3.7,0.4-5.6c0-26.1-0.7-52.3,0.2-78.4c0.8-22.2,3.2-44.4,5.4-66.5c1.5-15,4.4-29.8,5.6-44.8
		c2.3-29.6,18.6-47.7,45.3-57.8c20.2-7.6,41.4-10.9,62.8-12.1c36.1-2,72.2-2.5,107.7,5.9c12.4,3,24.6,7.8,36.1,13.6
		c18.4,9.3,27.5,25.7,30,45.9c3.7,29,7.5,58,11.2,87c0.5,3.8,0.5,7.6,0.5,11.5c0,31.9,0,63.7,0.1,95.6c0,2.9,1.5,5.9,2.6,8.7
		c3.5,9.5,3.5,19.1-0.1,28.4c-2,5.2-7.5,5.7-12.5,5.8C466.4,433.9,459.6,433.8,452.1,433.8z M331.2,197c-29.5,0-59.1,0-88.6,0
		c-12.1,0-16.1,3.4-17,15.5c-1.3,17.6-2.2,35.2-3,52.8c-0.4,8.8,3.5,13,12.5,13c35.3,0.2,70.5,0.1,105.8-0.1c1.6,0,4.1-1.6,4.5-2.9
		c5.1-16.2,17-21.6,32.7-21.8c17.2-0.2,28,4.8,32.7,17.8c2.2,6.1,5.3,7.8,11,7.1c1.5-0.2,3,0,4.5,0c9.7-0.5,13.6-5.2,12.9-14.9
		c-1.2-16.7-2.4-33.5-3.4-50.2c-0.7-12.6-4.5-16.3-17.3-16.3C389.4,197,360.3,197,331.2,197z M255.7,377c12.8-0.1,22.3-10,22.1-22.9
		c-0.2-12.4-10-22.1-22.4-22.1c-12.5,0-22.6,10.1-22.6,22.7C232.9,367.3,243,377.1,255.7,377z M405.3,377c13,0.3,22.9-9,23.3-21.8
		c0.4-12.3-9.2-22.7-21.4-23.1c-12.9-0.4-23.6,9.5-23.8,22.2C383.2,366.3,393.2,376.7,405.3,377z M330.8,172.9
		c15.5,0,30.9-0.1,46.4,0c5.1,0,9.6-0.7,10-7c0.3-4.8-3.1-7.3-9.7-7.3c-31.2,0-62.3,0-93.5,0c-6.5,0-10.1,2.7-9.7,7.4
		c0.5,5.7,4.4,7,9.4,6.9C299.5,172.8,315.2,172.9,330.8,172.9z"/>
	<path fill="#009FE3" d="M81.2,438.1c16.3,0,32.4,0,49.2,0c0,8.2,0,16.1,0,24.3c-41.6,0-82.9,0-124.6,0c0-8,0-15.5,0-23.9
		c16.4,0,32.8,0,50.3,0c0-2.8,0-4.8,0-6.8c0-34.2-0.1-222,0.1-256.3c0-5-1.7-6.9-6.2-8.4c-24.4-8-38.9-32.5-35.6-59.3
		C17.3,84.5,38,65.1,61.9,62.3c29.4-3.5,53.5,16.5,59.3,41.7c6.3,27.4-9,54.3-35.9,63.7c-2,0.7-4.6,3.4-4.6,5.2
		c-0.2,36.5-0.1,226.7-0.1,263.3C80.6,436.5,80.8,436.9,81.2,438.1z"/>
	<path fill="#FFFFFF" d="M331.2,197c29.1,0,58.2,0,87.3,0c12.9,0,16.6,3.8,17.3,16.3c1,16.7,2.2,33.5,3.4,50.2
		c0.7,9.7-3.2,14.4-12.9,14.9c-1.5,0.1-3-0.1-4.5,0c-5.7,0.8-8.8-0.9-11-7.1c-4.7-13-15.5-18-32.7-17.8
		c-15.7,0.2-27.7,5.6-32.7,21.8c-0.4,1.4-3,2.9-4.5,2.9c-35.3,0.2-70.5,0.2-105.8,0.1c-9,0-12.9-4.2-12.5-13
		c0.8-17.6,1.8-35.2,3-52.8c0.9-12.1,4.9-15.5,17-15.5C272.2,197,301.7,197,331.2,197z M408.2,209.3c-19.9,0-38.4,0-56.6,0
		c1.7,5.4,4.8,10.5,4.6,15.5c-0.5,12.8,7.4,24.1,19.4,25.6c13.4,1.7,26-7.2,26.2-20.5C401.9,222.4,403.2,216.1,408.2,209.3z"/>
	<path fill="#FFFFFF" d="M255.7,377c-12.7,0.1-22.8-9.7-22.9-22.3c-0.1-12.5,10-22.7,22.6-22.7c12.4,0,22.2,9.7,22.4,22.1
		C278,367.1,268.5,376.9,255.7,377z"/>
	<path fill="#FFFFFF" d="M405.3,377c-12.2-0.3-22.1-10.7-21.9-22.7c0.2-12.7,10.9-22.6,23.8-22.2c12.2,0.4,21.8,10.8,21.4,23.1
		C428.2,368,418.3,377.3,405.3,377z"/>
	<path fill="#FFFFFF" d="M330.8,172.9c-15.7,0-31.4-0.1-47.1,0c-5.1,0-9-1.2-9.4-6.9c-0.4-4.7,3.2-7.4,9.7-7.4c31.2,0,62.3,0,93.5,0
		c6.6,0,10,2.5,9.7,7.3c-0.4,6.3-4.9,7-10,7C361.8,172.9,346.3,172.9,330.8,172.9z"/>
	<path d="M408.2,209.3c-5,6.7-6.3,13.1-6.4,20.6c-0.2,13.3-12.8,22.1-26.2,20.5c-12-1.5-19.9-12.8-19.4-25.6
		c0.2-5-2.9-10.1-4.6-15.5C369.8,209.3,388.3,209.3,408.2,209.3z"/>
</g>
</svg>
