<?xml version="1.0" encoding="utf-8"?>
<!-- Generator: Adobe Illustrator 18.0.0, SVG Export Plug-In . SVG Version: 6.00 Build 0)  -->
<!DOCTYPE svg PUBLIC "-//W3C//DTD SVG 1.1//EN" "http://www.w3.org/Graphics/SVG/1.1/DTD/svg11.dtd">
<svg version="1.1" id="Layer_1" xmlns="http://www.w3.org/2000/svg" xmlns:xlink="http://www.w3.org/1999/xlink" x="0px" y="0px"
	 viewBox="0 0 500 500" enable-background="new 0 0 500 500" xml:space="preserve">
<path d="M1.2,410.4c0-46.6,0-93.2,0-139.9c0.3-0.7,0.8-1.4,1-2.1c2.9-15.2,10.6-27.5,22.9-37.1c2.6-2,5.3-3.8,8.2-5.9
	C21.2,214.6,12.1,202.4,7,187.6c-2.4-6.7-3.8-13.7-5.7-20.5c0-7,0-14,0-21.1c0.3-0.7,0.8-1.4,0.9-2.1C6,117.6,19.2,96.8,41.1,81.3
	c40.1-28.4,98.4-19.6,128.2,19.1c10.2,13.2,16.4,28,18.9,44.3C187.4,82.2,235.6,42.1,281,35.1c46-7.1,94.4,16.8,114.8,57.8
	c11.7,23.5,15,48,8.6,73.4c-7.2,28.7-24.3,50.6-49.9,66.6c13.8,12.4,21.2,27.5,21.9,45.9c1.9-1.1,3.1-1.8,4.3-2.6
	c27.5-18,55.1-35.6,82.2-54.1c7.6-5.2,14-4.3,21.2-0.9c9.3,4.5,14,12.4,17.1,21.6c0,65.1,0,130.3,0,195.4c-0.5,1.2-1,2.3-1.4,3.5
	c-2.9,8.7-8.6,14.9-17,18.7c-6.6,3-12.6,3.4-19.5-1.2c-27.3-18.5-55-36.3-82.6-54.3c-1.3-0.8-2.7-1.6-4.2-2.5
	c-0.2,0.9-0.3,1.4-0.3,1.9c-1.8,33.5-28.6,58.8-62.7,58.8c-83.5,0.1-166.9,0.1-250.4,0c-27.5,0-51.9-18.3-59.5-44.1
	C2.8,416.1,2,413.3,1.2,410.4z M298.3,64.6c-43.1-0.1-78.3,34.3-78.3,76.5c-0.1,42.3,35,76.8,78,76.8c43.1,0.1,78.3-34.3,78.3-76.5
	C376.3,99.2,341.3,64.6,298.3,64.6z M157.5,156.7c0.1-33.4-28.2-61.3-62.4-61.4c-34.1-0.1-62.5,27.6-62.6,61.2
	c-0.1,33.4,28.2,61.3,62.4,61.4C129,218,157.4,190.2,157.5,156.7z M189.1,154.2c0.2,24-8.3,44.9-24,63.3c19,0,37.2,0,56.1,0
	C203.2,199.5,192.8,178.6,189.1,154.2z"/>
<path fill="#FFFFFF" d="M1.2,167.1c1.9,6.8,3.4,13.8,5.7,20.5c5.2,14.7,14.3,27,26.4,37.8c-2.9,2.1-5.7,3.9-8.2,5.9
	c-12.3,9.6-20,21.9-22.9,37.1c-0.1,0.7-0.6,1.4-1,2.1C1.2,236.1,1.2,201.6,1.2,167.1z"/>
<path fill="#FFFFFF" d="M189.1,154.2c3.6,24.4,14.1,45.3,32.1,63.3c-18.9,0-37.1,0-56.1,0C180.9,199.1,189.3,178.2,189.1,154.2z"/>
</svg>
