<?xml version="1.0" encoding="utf-8"?>
<!-- Generator: Adobe Illustrator 18.0.0, SVG Export Plug-In . SVG Version: 6.00 Build 0)  -->
<!DOCTYPE svg PUBLIC "-//W3C//DTD SVG 1.1//EN" "http://www.w3.org/Graphics/SVG/1.1/DTD/svg11.dtd">
<svg version="1.1" id="Layer_1" xmlns="http://www.w3.org/2000/svg" xmlns:xlink="http://www.w3.org/1999/xlink" x="0px" y="0px"
	 viewBox="0 0 500 500" enable-background="new 0 0 500 500" xml:space="preserve">
<path fill="#706F6F" d="M224.2,7c2.6-1.7,4.4-3.3,6.5-4.1c3.3-1.2,6.4,1,6.5,4.6c0.1,3,1.6,4.3,4.1,4.8c2.5,0.5,3.8,1.9,4.2,4.4
	c0.1,0.7,1.2,1.2,1.8,1.9c1.8,2.2,3.9,4.3,5.2,6.8c0.5,0.9-0.6,2.9-1.4,4.1c-1.4,2.1-2,3.8-0.6,6.4c1.1,2,1,4.7,1.1,7.1
	c0.1,5-0.1,10,0,15c0,2.7-1.2,4.6-3.6,5.4c-8.4,3.1-8.9,9.5-9,18.2c6.2-0.4,12.3-0.8,18.1-3.9c5.5-3,11.7-4.8,17.6-7.2
	c1.9-0.8,3.8-1.8,5.6-2.9c14.2-8.7,28.5-17.4,42.7-26.2c4.4-2.7,9.1-3.8,14.2-4.4c6.4-0.8,12.7-2.3,19-3.6c4.5-1,6.1-0.1,8.2,4
	c1.9,3.6,3,7.8,6.8,10.2c1.8,1.1,1,4-1.2,4.7c-1.5,0.5-3.3,0.5-4.9,0.7c0,11.7,0,23.4,0,35.6c5.9-4.2,11.6-6.6,18.2-7.6
	c5.7-0.8,10.9,0.1,15.7,3c5.6,3.3,10.8,7.4,16.5,10.7c2.7,1.6,5.9,2.3,9,3.1c0.9,0.2,2.1-0.8,3.2-1.2c-0.4-1-0.7-2-1.3-2.9
	c-0.7-1.2-1.7-2.2-2.6-3.4c3.7-1.9,9.5-0.1,10.8,3.3c1.2,3-0.6,5.3-2.9,6.7c-2.4,1.4-5.2,2.2-7.6,3.2c4.6,21.6,9.2,43.2,13.9,64.8
	c0.6,2.8,0.3,6,3.4,8.1c0.9,0.6,0.5,3.6,0.2,5.5c-1.3,8.2-7.2,15.1-14.7,16.1c-8.6,1.2-16.9-0.3-22.2-8.6c-1.3-2-1.9-4.5-2.2-6.8
	c-0.1-1.3,0.8-3.4,1.8-3.9c2.5-1.3,2.9-3.4,3.4-5.6c4.6-22.3,9.3-44.6,13.9-67c0.4-1.9,0.1-2.9-2.1-3.5c-6.2-1.8-12.5-3.7-18.4-6.3
	c-10.8-4.8-20.7-5-31.4,1c-5.6,3.2-5.5,7.4-6.1,12.1c-0.1,1-0.2,2.1-0.3,3.1c-0.4,0-0.7,0-1.1,0c-0.2-2.7-0.6-5.5-0.6-8.2
	c0-2.4-0.9-3.7-2.9-5c-6.2-4.2-12.7-7.1-20.3-5.9c-4.6,0.7-9.1,2.4-13.6,4c-6.1,2.2-12.1,4.6-18.5,7.1c2,9,4.3,18.8,6.5,28.7
	c2.8,12.7,5.6,25.5,8.4,38.3c0.1,0.5,0,1.3,0.3,1.6c4.9,5.1,1.2,10-0.8,14.6c-2.4,5.5-7.1,8.6-13,9.2c-8,0.9-15.5-0.6-20.5-7.6
	c-1.6-2.1-2.5-5-2.9-7.6c-0.2-1.5,1.2-3.3,2.1-4.8c0.8-1.3,2.3-2.4,2.6-3.8c4.8-22.5,9.4-45.1,14.1-67.6c0.1-0.4,0-0.9,0-1.5
	c-1.9-0.5-3.7-0.8-5.5-1.4c-4-1.4-6.9-4.9-6.4-7.6c0.6-3,5.5-5.6,9.6-5c0.5,0.1,0.9,0.5,1.6,0.8c-1.5,2.1-2.9,4.2-4.6,6.5
	c4.9,2.3,8.8,0.7,12.3-1.5c3.4-2.1,6.5-4.6,9.8-6.9c13.7-9.8,24.9-10.2,40.5-0.1c0-11.4,0-22.7,0-34c-3.2,0.3-6.4,1-9-2
	c-0.4-0.4-1.7-0.3-2.5,0c-4.7,1.5-9.4,1.1-14.2,0.2c-1.5-0.3-3.7,0.1-4.7,1.1c-7,6.8-14.2,13.6-20.6,21
	c-6.6,7.7-14.4,13.4-23.7,17.5c-8.6,3.7-17.1,7.5-25.7,11.3c-0.6,0.3-1.2,0.6-2.2,1.1c3.6,2.9,6.9,5.6,10.1,8.5c2.2,2,5.6,4,5.9,6.4
	c0.7,4.5,0,9.3-1,13.8c-0.7,3-1.2,5.4-0.4,8.5c1,3.9,0,8.2,0.2,12.4c0.2,3.8,0.3,7.8,1.2,11.4c2.1,8.5,4.8,16.8,7.2,25.2
	c0.2,0.7,0.4,1.5,0.4,2.3c0.5,14.3,1.5,28.7,1.3,43c-0.3,18.5-1.3,36.9-2.6,55.3c-1.1,14.8-2.6,29.7-4.8,44.4
	c-4.5,31-11.8,61.3-23.1,90.6c-3.8,9.9-7,20.1-10.5,30.1c-0.2,0.7-0.4,1.5-0.6,2.5c1.7,0,3.1-0.1,4.5,0c3.2,0.3,4.3,1.9,3.4,5
	c-0.3,1.1-0.8,2.1-1,3.2c-0.2,1.1-0.8,3-0.3,3.4c3.8,3,0.8,10.8,8,11.3c1.8,0.1,3.6,0.5,5.7,0.8c-0.5,3.5-2.8,4.7-5.6,5
	c-4.4,0.4-8.6,1-13.1-0.4c-6-1.8-12.1-0.4-18.1,1.3c-1.5,0.4-3,0.9-4.5,1.2c-6.6,1.7-8.2,0.7-9.6-6.2c-1.9,0.3-3.8,0.6-5.7,0.9
	c-0.2,0.3-0.4,0.6-0.5,0.9c3.8,2.5,7.5,5,11.9,7.8c-5.2,3.4-10,3.3-14.8,2.8c-11.1-1.1-22.1-2.8-33.2-3.2
	c-5.9-0.2-11.8,1.8-17.7,2.5c-6.6,0.8-13.2,1.4-19.8,1.7c-1.6,0.1-3.5-1.2-4.9-2.3c-1.7-1.4-3.2-1.9-5.5-1.4
	c-5.4,1.2-10.8,2.4-16.3,2.8c-4,0.3-8.2-0.6-11.5-3.6c-0.5-0.5-1.8-0.5-2.6-0.2c-5.5,1.9-10.9,2.6-16.6,0.7
	c-2.9-0.9-6.2-0.6-9.2-0.8c-1.5-0.1-3-0.3-5.4-0.6c1.3-1.5,1.9-2.7,2.9-3.3c4.7-3,9.4-5.9,14.3-8.6c1.2-0.6,3,0,4.5,0.1
	c0.8,0,1.8,0.4,2.5,0.1c2.7-1.1,5.6-2.2,8.1-3.8c5.8-3.6,11.3-7.5,17.1-11c1.1-0.7,3-0.7,4.3-0.2c1.7,0.6,3.3,1.9,4.7,3.2
	c2.9,2.7,5.8,2.8,9.1,1c13.1-7.3,26.1-15.1,36.4-26.2c4.7-5.1,8-11.8,10.6-18.3c5-12.1,9.3-24.4,13.2-36.8c1-3.3,0.1-7.4-0.6-11
	c-2.5-14.7-5.1-29.3-7.8-43.9c-2.3-12.7-4.6-25.3-6.9-38c-2.4-13.2-4.8-26.5-7.2-39.7c-2.5-13.3-5-26.6-7.6-40.5
	c-4.6,4.3-9.3,8-8.7,15c0.1,1-1.5,2.2-2.4,3.2c-0.8-0.8-1.9-1.4-2.2-2.4c-1.7-4.9-3.1-9.9-4.9-14.8c-0.7-2-0.3-3.2,1.5-4.1
	c3.4-1.8,6.9-3.5,10.6-5.5c-0.4-1.3-1.1-2.6-1.3-3.9c-0.3-2-0.3-4.1-0.4-6.2c-0.1-2.1,0.1-4.3-0.4-6.4c-0.7-3.2,1-8.3,3.7-10.3
	c0.6-0.5,1.1-1.7,1-2.5c-0.7-4.7-1.4-9.4-2.5-14c-0.3-1.5-2.1-2.7-2.5-4.2c-0.6-2.8-1.7-6.1-0.8-8.5c1.2-3.3,5-2.1,7.7-1.5
	c2.9,0.6,3.8,3.1,3.9,5.9c0,3-0.3,6.1,0,9.1c0.4,4.2,1.4,8.3,2.1,12.4c0.6,3.5,3,4.9,6.3,6c1.2-3.3,2.4-6.5,3.6-9.6
	c2.2-5.6,5-10.6,10.2-14.1c1.5-1,2.6-2.8,3.4-4.4c3.1-6.5,5.7-13.2,6.6-20.5c0.3-2.1,1.5-4.1,2-6.3c0.2-1,0-2.2-0.4-3.1
	c-1.6-3.6-1.7-7.1-1.2-11c1.1-7.9,3.7-14.8,8.3-21.4c4.5-6.4,7.6-13.7,11.3-20.7c0.5-0.9,0.5-2.1,0.8-3.4c-1.6,0-3,0-4.6,0
	c0.5-4.1-2.4-4.8-5.2-5.7c-7.9-2.3-13.7-11.5-12.4-19.7c0.5-3.2,2.6-4.8,5.6-5.3c1.3-0.2,2.7,0,4.5,0c0-3.6-0.3-7.2,0.1-10.6
	c0.2-2.2,0.8-4.8,2.2-6.3c4.2-4.4,9.7-7.5,12.4-13.3c0.3-0.7,2.2-1.2,3.3-1.1C219.7,6.2,222.4,6.7,224.2,7z M193.7,357.1
	c0.3,0,0.6,0,0.9,0c0.4-5.3,1.1-10.6,1.1-15.9c-0.1-18.2-0.8-36.5-0.8-54.7c0-9,0.8-18,1.7-27c1.3-13.3,5.9-25.7,11.6-37.6
	c4.8-10.1,10-20,15.2-30c2.2-4.2,3.5-8.8,1.1-12.7c-5.1-8.2-11.1-15.9-16.7-23.8c-1.3,1.7-1.7,3.1-2,4.4c-2,8.3-6.1,15.5-12.4,21.3
	c-6.3,5.9-12.7,11.5-19.1,17.2c-1.1,1-2.2,1.9-3.4,2.8c2.1,0.6,3.7,0.4,5.2,0.4c1.6,0,3.1,0.1,4.7,0.2c7.5,0.7,7.5,0.7,8.8,8
	c0.6,3.3,1,6.6,1.5,9.9c-0.3,0.2-0.7,0.4-1,0.6c-2.8-2.4-5.4-5.5-8.6-7.1c-3.4-1.7-7.5-2-12-3.1
	C177.6,259.9,185.7,308.5,193.7,357.1z M290,175.2c4-0.3,7.7-0.4,11.2-1c2.1-0.3,3.7-1.3,3.4-4.3c-0.5-4.7-0.4-9.5-0.4-14.3
	c0-13.8,0-27.6,0-41.4c-0.5,0-0.9-0.1-1.4-0.1C298.6,134.3,294.3,154.5,290,175.2z M422.6,174.3c-0.4-19.5-0.9-38.6-1.3-57.8
	c-0.2,0-0.4,0-0.6,0c-4.1,19.9-8.3,39.8-12.6,60.2C413.3,175.8,417.8,175.1,422.6,174.3z M305.3,110.3c-0.2,0-0.4,0.1-0.6,0.1
	c0,1.2,0,2.4,0,3.6c0.4,16.4,0.9,32.9,1.3,49.3c0.3,11.2-1,12.4,12.2,10.4c0.2,0,0.3-0.3,0.7-0.7
	C314.5,152.2,309.9,131.2,305.3,110.3z M423.7,112.9c-0.3,0-0.5,0.1-0.8,0.1c0.6,20.4,1.1,40.8,1.7,61.5c4.3,0,8.3,0,12.5,0
	C432.7,153.9,428.2,133.4,423.7,112.9z M173.5,301.5c0.3,0,0.6-0.1,1-0.1c-0.4-3-0.6-6-1.1-8.9c-4.3-24.9-8.7-49.8-13.1-74.7
	c-0.2-0.9-0.6-1.8-1-2.7c-0.4,0.1-0.7,0.2-1.1,0.3C161.7,244.4,168.6,272.7,173.5,301.5z M175.6,308.9c-0.4,0.1-0.8,0.1-1.2,0.2
	c1.9,9.9,3.7,19.8,5.6,29.6c0.3,0,0.5-0.1,0.8-0.1C179.1,328.7,177.3,318.8,175.6,308.9z"/>
</svg>
