<?xml version="1.0" encoding="utf-8"?>
<!-- Generator: Adobe Illustrator 18.0.0, SVG Export Plug-In . SVG Version: 6.00 Build 0)  -->
<!DOCTYPE svg PUBLIC "-//W3C//DTD SVG 1.1//EN" "http://www.w3.org/Graphics/SVG/1.1/DTD/svg11.dtd">
<svg version="1.1" xmlns="http://www.w3.org/2000/svg" xmlns:xlink="http://www.w3.org/1999/xlink" x="0px" y="0px"
	 viewBox="0 0 500 500" enable-background="new 0 0 500 500" xml:space="preserve">
<g id="Layer_1">
	<g id="Layer_3">
		<path fill="#009FE3" d="M152.8,356c12,0,22.7,0,34.2,0c0.3-5.1,0.5-8.9,0.5-12.8c0-72,0.3-190.2-0.3-262.2c0-5.4-3.1-12-6.9-16.1
			c-11.7-12-14.3-28.3-5.1-41.9c8.2-12.3,26.5-17.4,39.8-10.7c14.8,7.4,21.2,22.5,16.6,38.5c-0.8,2.3-1.5,4.9-2.8,8.7
			c43.1,8.2,85.8,6.4,128.2-1c41.6-7.1,83-17.4,126.1-26.5c0,16.8,0,35,0,53.1c0,31.1-0.5,62.3,0.3,93.4c0.3,10-3.3,13.8-12.8,16.6
			c-80.9,22.5-162.6,28.1-245.1,10.5c-1.3-0.3-14.6,0-16.1,0.3c0,34.2,0,114.2,0,149.6c12.8,0,37.3,0,48.8,0c1.3,2.3,2,3.1,2,3.6"/>
	</g>
</g>
<g id="Layer_2">
	<path fill="#009FE3" d="M400.4,501.7c-97.4,0-87.9-1.1-196.4-1.1s-82.8,2.1-196.4,1.1c0-91.1,87.9-165,196.4-165
		S400.4,410.6,400.4,501.7z"/>
</g>
</svg>
