<?xml version="1.0" encoding="utf-8"?>
<!-- Generator: Adobe Illustrator 18.0.0, SVG Export Plug-In . SVG Version: 6.00 Build 0)  -->
<!DOCTYPE svg PUBLIC "-//W3C//DTD SVG 1.1//EN" "http://www.w3.org/Graphics/SVG/1.1/DTD/svg11.dtd">
<svg version="1.1" id="Layer_1" xmlns="http://www.w3.org/2000/svg" xmlns:xlink="http://www.w3.org/1999/xlink" x="0px" y="0px"
	 viewBox="0 0 500 500" enable-background="new 0 0 500 500" xml:space="preserve">
<path fill="#8C181F" d="M339.5,491.2c-91.7,0-183.4,0-275,0c-5.3-3.1-9.7-7-9.7-13.8c0-9.6-0.2-19.2,0-28.8
	c0.2-6.8,4.7-11.4,11.5-12.1c2.7-0.3,5.3-0.2,8-0.2c6.7,0,13.4,0,20.6,0c0-2.6,0-4.6,0-6.7c0-107.7,0-215.4,0-323.2
	c0-1.6-0.1-3.2,0-4.7c0.4-6.9,3.8-11.2,10.8-12.3c5.4-0.8,10.9-0.8,16.7-1.2c0-3.3,0-6.4,0-9.5c0-11.1,4.6-15.7,15.9-15.7
	c42.4,0,84.7,0,127.1,0c9.5,0,13.9,4.3,14.2,13.7c0.1,3.9,0,7.7,0,11.9c4.8,0,8.9,0,12.9,0c12,0,16,3.9,16,15.7
	c0,41.4,0,82.8,0,124.3c0,8.2,0,8.2,7.9,10.8c0.7,0.2,1.5,0.5,2.2,0.8c17.2,6.7,26.1,20.4,31.3,37.2c4.9,16,5.4,32.5,5.7,49
	c0.1,6.4,1.4,12.5,5.4,17.7c4.4,5.7,10.5,6.1,15.2,0.7c2.1-2.4,3.8-5.4,4.9-8.5c4.1-11.5,3.3-23.5,0.3-34.9
	c-5.4-21.3-11.6-42.4-17.9-63.4c-7.2-23.7-14.8-47.3-17.7-72.1c-3.2-27.8,2.6-53.3,16.2-77.5c14.7-26.1,32.6-49.7,53.1-71.4
	c3.4-3.6,7.5-6.5,11.3-9.8c2.5,0,5,0,7.6,0c11.2,8.1,11.6,14.5,2.5,25.1C425,45.7,414,59.5,402.7,73c-1.9,2.3-2,4.1-0.4,6.7
	c6.6,10.3,11.2,21.4,14.2,33.2c6.9,27.8-5.2,50.7-32.2,60.3c-3.5,1.2-7.1,2.2-10.6,3.3c0.4,2.1,0.6,3.9,1.1,5.5
	c7.3,24.7,14.5,49.4,21.8,74c6.7,22.6,13.8,45.1,12.8,69.2c-0.5,12.6-3.9,24.1-11.5,34.3c-9.7,13.1-26.3,18.5-41.5,12.8
	c-14.6-5.5-22.6-17.1-25.2-31.8c-2.1-12-2-24.4-3.1-36.6c-1-10.4-2.8-20.6-8.4-29.7c-2.6-4.3-5.8-8.1-10.9-9.5
	c0,57.3,0,114.2,0,171.5c9.3,0,18.3-0.1,27.2,0c8.3,0.1,12.8,4.8,12.8,13c0.1,8.5-0.2,17,0.1,25.5
	C349.2,482.4,346.4,487.9,339.5,491.2z M200.5,235.9c21.1,0,42.2,0,63.3,0c10.5,0,15.3-4.8,15.3-15.3c0-29.1,0-58.3,0-87.4
	c0-10.4-4.8-15.3-15.3-15.3c-41.9,0-83.8,0-125.6,0c-10.5,0-15.3,4.8-15.3,15.3c0,29,0,57.9,0,86.9c0,11.1,4.6,15.7,15.8,15.8
	C159.3,235.9,179.9,235.9,200.5,235.9z M384.7,101.8c-8.3,15.6-14.1,30.8-13.6,48.2c2.4-0.7,4.4-1.2,6.3-2
	c9.8-3.8,15.2-10.7,14.9-20.1C392,118.9,389,110.6,384.7,101.8z"/>
<path fill="#FFFFFF" d="M200.5,235.9c-20.6,0-41.3,0-61.9,0c-11.1,0-15.8-4.6-15.8-15.8c0-29,0-57.9,0-86.9
	c0-10.5,4.8-15.3,15.3-15.3c41.9,0,83.8,0,125.6,0c10.5,0,15.3,4.8,15.3,15.3c0,29.1,0,58.3,0,87.4c0,10.5-4.8,15.3-15.3,15.3
	C242.7,235.9,221.6,235.9,200.5,235.9z"/>
</svg>
