<?xml version="1.0" encoding="utf-8"?>
<!-- Generator: Adobe Illustrator 18.0.0, SVG Export Plug-In . SVG Version: 6.00 Build 0)  -->
<!DOCTYPE svg PUBLIC "-//W3C//DTD SVG 1.1//EN" "http://www.w3.org/Graphics/SVG/1.1/DTD/svg11.dtd">
<svg version="1.1" id="Layer_1" xmlns="http://www.w3.org/2000/svg" xmlns:xlink="http://www.w3.org/1999/xlink" x="0px" y="0px"
	 viewBox="0 0 500 500" enable-background="new 0 0 500 500" xml:space="preserve">
<g>
	<path fill="#662483" d="M118.4,239c3.9,0.3,7.7,0.7,11.5,1c10.5,0.9,21,2.2,31.6,1.9c11.4-0.4,22.6-2.1,33.1-6.9
		c8.2-3.7,15-9.2,20-16.7c1.8-2.6,3.4-5.3,4.8-8.1c1.8-3.8,1.9-7.8,0-11.6c-4.6-8.9-10.6-16.6-19.7-21.4c-6.4-3.4-13.4-4.2-20.6-4
		c-9,0.3-17.7,2.3-26.2,4.9c-17,5.3-33.1,12.7-48.9,20.7c-4.4,2.2-8.7,4.5-13.2,6.8c-11.4-19-22.7-38.1-34.1-57.2
		c2-1.6,4.1-3.1,6.1-4.6c6.7-5.2,13.4-10.4,20.7-14.7c11.2-6.6,23.1-11.7,35.4-15.8c13.1-4.3,26.5-7.2,40.2-8.6
		c7.4-0.8,14.8-1,22.2-0.7c9.6,0.5,19.1,1.9,28,5.8c10,4.3,18.3,11.1,25.3,19.4c9.7,11.6,16.1,24.9,19.2,39.7
		c2.8,13.1,2.1,26-2.1,38.7c-5.7,17.1-13.9,32.9-25.4,46.8c-4.1,5-9,9-14.6,12.3c-2.6,1.6-5.2,3.3-7.8,4.9c-0.3,0.2-0.5,0.4-0.9,0.7
		c2.4,1.1,4.6,2.1,6.9,3.1c6.2,2.7,12.3,5.5,18.6,7.9c5.7,2.2,11.8,3.1,18,2.5c6.6-0.7,12.3-3.2,17.5-7.2c6.4-5,11.4-11.2,16-17.9
		c5.9-8.7,10.6-18.1,15.5-27.4c5.9-11.3,12.2-22.3,19.7-32.6c6.2-8.6,13.2-16.4,21.9-22.5c8.9-6.3,18.9-9.9,29.6-11.6
		c11-1.7,22-1.7,33.1-1.2c11.2,0.5,21.1,4.6,30.3,10.8c18.6,12.4,31.8,29.2,41.5,49.1c7.3,15.1,12,31,14.8,47.5
		c2.3,13.6,3.3,27.2,2.9,41c-0.6,23-3.7,45.6-10.9,67.5c-4.8,14.7-11.5,28.4-20.9,40.7c-9,11.7-19.9,21-33.3,27.3
		c-8.4,3.9-17.3,6.4-26.5,7.4c-11.7,1.3-23.2,0.8-34.7-2c-14.1-3.4-25.7-10.8-35.2-21.7c-10.4-11.9-16.8-25.7-20.6-40.9
		c-3.3-13.1-5.1-26.3-4.8-39.8c0.2-8.8,1.7-17.3,5.7-25.2c0.5-0.9,1-1.8,1.5-2.6c0.1,0,0.3,0,0.4,0c0.2,0.6,0.4,1.2,0.5,1.8
		c0.2,13.8,7.2,24.6,15.6,34.7c4.3,5.3,9.3,9.9,15.4,13.1c10.1,5.4,21,7.5,32.4,6.5c24.5-2,44.2-13.3,60.5-31.2
		c10.1-11.1,17.4-23.8,20.8-38.5c2.8-12.2,3.6-24.6,2.9-37.2c-0.5-9.4-1.7-18.6-4.1-27.7c-1.8-7.1-4.2-13.9-8-20.2
		c-1.2-1.9-2.5-3.7-3.9-5.5c-3.5-4.4-8.4-6.5-13.8-7.5c-5.8-1.1-11.6-1.9-17.6-1.8c-8.5,0.1-15.9,3.3-22.6,8.4
		c-6.9,5.4-12.4,12.2-17.6,19.3c-6.3,8.7-11.4,18-17,27.1c-7,11.4-14.8,22.3-24.3,31.9c-3.9,4-8.1,7.8-13.2,10.3
		c-4.5,2.2-9.2,3.1-14.1,3.2c-13.8,0.3-27.7,0.3-41.5,0.5c-0.5,0-1,0-1.8,0c0.3,0.7,0.5,1.2,0.7,1.7c3.5,7.9,7.1,15.7,10.4,23.7
		c3.2,7.9,4.8,16.2,6,24.6c1.2,8.4,1.5,16.9,1.2,25.4c-0.6,15.8-3,31.2-9.2,45.8c-4.1,9.6-9.8,18.1-16.5,26
		c-8.6,10.1-18.3,18.8-29.5,25.9c-9.2,5.8-19.1,9.2-29.9,10.7c-10.7,1.5-21.5,2-32.3,1.4c-11-0.6-21.9-1.8-32.3-5.5
		c-12.9-4.5-24.9-10.7-36.1-18.5C67,456.4,49.2,434.6,36,408.8c-9.7-19.1-16.5-39.2-20.3-60.2c-1.6-9.1-2.6-18.4-3.6-27.7
		c-1.1-10-1.5-20.2-1-30.3c0.2-3.2,0.8-6.3,1.2-9.5c0.1-0.7,0.5-1.4,0.9-2.1c0.6-1,1.4-1,2-0.1c1,1.7,2,3.5,2.8,5.3
		c3.6,8.7,6.1,17.7,8.6,26.8c6.2,22.2,14.4,43.6,26,63.6c4.4,7.6,9.3,14.8,15.3,21.2c7,7.3,15.4,12.5,24.4,16.7
		c11.4,5.3,23.5,8.7,35.9,10.8c12.1,2.1,24.3,2.7,36.5,1.8c11.2-0.9,22.1-3,32.3-7.6c17.2-7.9,28.6-20.8,32.7-39.5
		c2.6-11.7,1.2-23.1-3-34.3c-2.4-6.6-5.9-12.6-11-17.4c-6.1-5.8-13.5-9.1-21.7-10.9c-9.5-2.1-19-2.3-28.7-1.6
		c-4.3,0.3-8.5,0.8-12.8,1.2c-0.5,0-1.1-0.3-1.4-0.7c-4.3-5.1-8.1-10.6-11.5-16.3c-10.8-18.1-17.7-37.6-21.4-58.4
		C118.4,239.5,118.4,239.3,118.4,239z"/>
	<path fill="#662483" d="M220.5,41.1c0.7,1.5,1.4,2.9,2.2,4.3c6.9,12.8,16.4,23.5,27.4,33c6.6,5.7,13.5,11.1,21.1,15.4
		c3.7,2.1,7.8,3.7,11.8,5.2c7.4,2.7,15.1,4.4,23,5c9.6,0.8,19.2,0,28.6-2.3c17.3-4.2,32.8-12.4,47.1-22.8
		c6.2-4.4,12.1-9.2,18.2-13.7c2.6-1.9,5.5-3.6,8.3-5.3c1.9-1.1,1.9-0.9,3.2,0.8c4.2,5.3,8.4,10.6,12.8,15.8
		c5.2,6.2,10.8,12.1,15,19.1c2,3.4,3.6,7.2,5.3,10.8c0.5,1.1,0.4,2.2-0.3,3.1c-1.8,2.2-3.5,4.6-5.5,6.5
		c-6.3,5.9-13.4,10.6-20.7,15.1c-9.8,6-19.9,11.6-30.7,15.7c-5.6,2.1-11.5,3.6-17.3,5.1c-6,1.5-12.2,2.7-18.3,3.7
		c-12.2,2-24.5,2.8-36.9,1.6c-22.2-2.2-41.4-11.1-57.8-26.2c-9.4-8.6-17.5-18.4-24.5-29c-3.5-5.2-5.8-11.1-7.9-17
		c-3.4-9.4-6-19.1-7.2-29.1c-0.5-3.9-0.8-7.8,0.2-11.7C218.1,42.8,218.6,41.4,220.5,41.1z"/>
	<path fill="#662483" d="M309.4,4.7c16.1,14.9,32.1,29.7,48.1,44.5c-3.3,3.2-6.6,6.3-9.7,9.6c-6.2,6.6-12.1,13.5-18.2,20.1
		c-5.4,5.8-11.2,11.1-18.1,15.2c-0.8,0.5-1.3,0.5-2.1-0.1c-7.7-5.7-15.6-11.2-23.2-17c-6.4-4.9-12.1-10.4-16.5-17.2
		c-1.2-1.9-2.2-4-3.3-6c-0.3-0.6-0.3-1.1,0.2-1.7c14-15.5,28.1-31.1,42.1-46.7C308.9,5.3,309.1,5,309.4,4.7z"/>
</g>
</svg>
