<?xml version="1.0" encoding="utf-8"?>
<!-- Generator: Adobe Illustrator 18.0.0, SVG Export Plug-In . SVG Version: 6.00 Build 0)  -->
<!DOCTYPE svg PUBLIC "-//W3C//DTD SVG 1.1//EN" "http://www.w3.org/Graphics/SVG/1.1/DTD/svg11.dtd">
<svg version="1.1" id="Layer_2" xmlns="http://www.w3.org/2000/svg" xmlns:xlink="http://www.w3.org/1999/xlink" x="0px" y="0px"
	 viewBox="0 0 500 500" enable-background="new 0 0 500 500" xml:space="preserve">
<path fill="#E30613" d="M304.5,500h-109c-16.6,0-30-13.4-30-30V30.2c0-16.6,13.4-30,30-30h109c16.6,0,30,13.4,30,30V470
	C334.5,486.6,321.1,500,304.5,500z"/>
<path fill="#E30613" d="M470,333.9H30.1c-16.6,0-30-13.4-30-30V196.1c0-16.6,13.4-30,30-30H470c16.6,0,30,13.4,30,30v107.8
	C500,320.5,486.6,333.9,470,333.9z"/>
</svg>
