<?xml version="1.0" encoding="utf-8"?>
<!-- Generator: Adobe Illustrator 18.0.0, SVG Export Plug-In . SVG Version: 6.00 Build 0)  -->
<!DOCTYPE svg PUBLIC "-//W3C//DTD SVG 1.1//EN" "http://www.w3.org/Graphics/SVG/1.1/DTD/svg11.dtd">
<svg version="1.1" id="Layer_1" xmlns="http://www.w3.org/2000/svg" xmlns:xlink="http://www.w3.org/1999/xlink" x="0px" y="0px"
	 viewBox="0 0 500 500" enable-background="new 0 0 500 500" xml:space="preserve">
<path fill="#009640" d="M473.3,389.2c-3,4-5.7,7.9-8.8,11.6c-5.3,6.4-10.7,12.7-16.4,18.8c-7,7.6-14.4,14.8-22.6,21.1
	c-5.8,4.5-11.7,8.8-17.7,13.1c-3.6,2.6-7.3,5-11.1,7.3c-4.3,2.6-8.7,4.9-13.1,7.2c-3.7,2-7.4,3.8-11.1,5.7c-1.5,0.8-3.1,1.4-4.7,2.1
	c-3.7,1.5-7.3,3.1-11,4.5c-2.3,0.9-4.6,1.5-6.9,2.2c-1.8,0.6-3.6,1.2-5.5,1.8c-4.5,1.4-8.9,2.8-13.4,4.1c-2.5,0.7-5.1,1.3-7.7,1.7
	c-4,0.7-8,1.4-12,2c-5.7,0.8-11.3,1.7-17,2.4c-3.6,0.4-7.3,0.6-11,0.8c-4.1,0.2-8.3,0.5-12.4,0.4c-4.6,0-9.2-0.1-13.7-0.5
	c-10-1-20-2.2-29.9-3.5c-3.7-0.5-7.4-1.7-11.1-2.5c-3.1-0.7-6.3-1.3-9.4-2.1c-2.7-0.7-5.3-1.6-7.9-2.5c-2.5-0.8-5-1.5-7.5-2.4
	c-2.3-0.8-4.5-1.7-6.8-2.6c-1.9-0.7-3.8-1.4-5.7-2.2c-1.6-0.6-3.2-1.2-4.8-1.9c-3.4-1.5-6.9-3.1-10.3-4.7c-3.3-1.6-6.5-3.3-9.6-5.1
	c-4.2-2.4-8.4-4.7-12.4-7.4c-6.7-4.5-13.4-9.1-19.9-13.9c-11.1-8.2-21-17.7-30.2-27.9c-6.4-7.1-12.5-14.6-18.3-22.2
	c-4.3-5.6-8.2-11.5-11.9-17.5c-3.2-5.2-5.8-10.8-8.6-16.3c-2.6-5.1-5.1-10.1-7.4-15.3c-1.5-3.4-2.6-7.1-3.9-10.6
	c-1.2-3.5-2.5-7-3.7-10.5c-0.9-2.7-1.7-5.4-2.5-8.1c-1.1-3.9-2.1-7.8-2.9-11.8c-0.9-4.3-1.6-8.7-2.3-13.1
	c-0.8-5.2-1.8-10.4-2.3-15.7c-0.5-5.5-0.8-11.1-0.8-16.6c0-9.7-0.1-19.4,0.6-29c0.7-9.1,2.5-18.1,4.1-27.1c1-5.6,2.3-11.2,3.8-16.7
	c1.1-4.3,2.7-8.4,4.1-12.6c0.6-1.7,1.1-3.4,1.7-5.1c2.1-5.3,4.2-10.6,6.4-15.8c2.2-5.1,4.6-10.1,7.1-15.1c1.5-2.9,3.1-5.8,4.9-8.5
	c3.4-5.5,6.9-11,10.5-16.3c9.2-13.6,20.1-25.8,31.8-37.3c6.7-6.5,13.7-12.5,21.2-18c4.8-3.6,9.5-7.3,14.5-10.5
	c5.8-3.7,11.8-7.1,17.9-10.5c3.7-2.1,7.4-4.1,11.2-5.9c4.2-1.9,8.5-3.6,12.7-5.4c3.5-1.5,7.1-3,10.7-4.3c2.2-0.8,4.5-1.4,6.8-2.1
	c1.9-0.6,3.8-1.2,5.7-1.7c2.3-0.6,4.6-1.3,6.9-1.9c3.1-0.8,6.2-1.8,9.3-2.5c4.3-0.9,8.7-1.6,13.1-2.3c4.5-0.7,9.1-0.6,13.4-1.9
	c6.4-1.8,12.7-0.5,19.1-1c0.5,0,1.1,0.4,1.6,0.6c-0.4,0.5-0.8,1.2-1.3,1.3c-5.2,1.7-10.5,3.3-15.7,5.1c-3.3,1.2-6.5,2.7-9.7,4.1
	c-2.9,1.2-5.8,2.4-8.6,3.7c-2.6,1.3-5.2,2.7-7.8,4.1c-3.1,1.7-6.3,3.5-9.4,5.3c-3.9,2.3-7.8,4.6-11.5,7.2
	c-5.6,3.9-11.2,7.8-16.3,12.2c-7.1,6.2-13.8,12.8-20.6,19.4c-3.2,3.2-6.3,6.5-9.1,10.1c-4.3,5.4-8.3,11-12.3,16.6
	c-2.6,3.7-5.1,7.4-7.4,11.3c-2.6,4.4-4.9,8.9-7.2,13.4c-2,3.9-3.9,7.8-5.6,11.8c-1.5,3.4-2.7,6.9-4,10.4c-0.8,2.2-1.6,4.3-2.4,6.5
	c-0.8,2.1-1.5,4.2-2.2,6.4c-0.5,1.7-1.1,3.4-1.5,5.2c-1.3,5.7-2.6,11.4-3.7,17.1c-1.1,5.5-2.3,11-2.8,16.6c-0.8,9-1.4,18-1.6,27.1
	c-0.1,5.3,0.5,10.6,1,15.8c0.6,6.4,1.2,12.9,2.1,19.2c0.6,4.3,1.7,8.6,2.7,12.8c0.6,2.9,1.3,5.8,2,8.6c0.8,3.2,1.8,6.3,2.8,9.4
	c0.7,2.4,1.4,4.8,2.2,7.2c0.8,2.2,1.6,4.3,2.5,6.4c1.2,3,2.5,6.1,3.8,9c1.8,4,3.7,7.9,5.6,11.8c1.3,2.6,2.6,5.3,4.1,7.8
	c1.7,3.1,3.5,6.1,5.5,9c3,4.6,6.1,9.2,9.3,13.7c2.9,3.9,6,7.7,9.3,11.4c4.8,5.3,9.5,10.8,14.7,15.7c5.3,5.1,11.1,9.8,16.9,14.5
	c4.6,3.7,9.3,7.2,14.2,10.6c3.7,2.5,7.6,4.7,11.5,7c2.4,1.4,4.9,2.8,7.4,4.1c2.8,1.4,5.6,2.8,8.4,4.1c2.9,1.4,5.8,2.8,8.7,4.1
	c1.4,0.6,2.8,1.2,4.3,1.7c3.7,1.3,7.5,2.6,11.3,3.9c1.7,0.6,3.4,1.1,5.1,1.7c2.7,0.9,5.4,1.8,8.1,2.6c2.3,0.7,4.7,1.3,7.1,1.8
	c3.5,0.7,7.1,1.4,10.6,2c5.5,0.9,11,1.9,16.6,2.7c3.3,0.4,6.6,0.4,9.9,0.6c5.2,0.2,10.3,0.6,15.5,0.5c7-0.1,14.1-0.4,21-1.1
	c6.6-0.6,13.1-1.8,19.7-2.9c3.6-0.6,7.1-1.8,10.7-2.6c2.9-0.7,5.8-1.3,8.6-2.1c2.2-0.6,4.3-1.2,6.5-1.9c4.4-1.5,8.7-3,13-4.7
	c3.2-1.3,6.3-2.8,9.4-4.2c3.8-1.8,7.7-3.5,11.4-5.4c3.2-1.6,6.3-3.4,9.4-5.3c5-3.1,10.1-6.1,15-9.4c3.9-2.7,7.6-5.7,11.4-8.6
	c1.9-1.5,3.8-3,5.6-4.7C471.1,388.4,472.2,388.6,473.3,389.2z"/>
<path fill="#009640" d="M417.2,227.4c-9.6,0-19.1,0-28.7,0c-1.5,0-2.3,0.3-2.7,2c-1.4,5.4-3,10.7-4.6,16.1
	c-1.3,4.3-2.8,8.5-4.1,12.8c-0.8,2.7-1.5,5.5-2.2,8.2c-0.6,2-1.1,4.1-1.8,6.1c-0.8,2.6-1.8,5.2-2.6,7.9c-0.3,1-0.2,2.1-0.7,3
	c-0.5,0.9-1.4,1.4-2.2,2.2c-0.4-0.7-1-1.3-1.3-2.1c-0.7-1.7-1.2-3.4-1.9-5c-1.6-4.1-3.1-8.3-4.7-12.4c-1.9-4.9-4-9.7-5.9-14.6
	c-1.3-3.5-2.4-7-3.8-10.5c-1.6-4.1-3.2-8.1-4.9-12.1c-0.3-0.6-1.6-1-2.4-1c-8.2-0.1-16.4-0.1-24.6,0c-9.4,0.1-18.8,0.4-28.2,0.5
	c-0.6,0-1.2,0.1-1.7-0.1c-0.6-0.2-1.4-0.5-1.5-0.9c-0.1-0.6,0.2-1.4,0.7-1.8c5.3-4.5,10.7-8.9,16-13.4c8.3-6.9,16.7-13.8,25-20.7
	c0.7-0.6,1.5-1.1,2-1.8c0.5-0.7,1-1.8,0.9-2.5c-0.7-3.2-1.6-6.3-2.5-9.5c-0.9-3.4-1.9-6.8-2.8-10.2c-0.8-2.6-1.7-5.3-2.4-7.9
	c-0.8-2.8-1.5-5.6-2.3-8.4c-0.8-2.8-1.6-5.6-2.4-8.3c-0.9-3.1-1.8-6.2-2.6-9.3c-0.1-0.5,0.1-1.5,0.5-1.7c0.5-0.2,1.4-0.1,1.9,0.2
	c4.6,3.1,9.1,6.2,13.7,9.3c6.3,4.3,12.6,8.6,18.9,12.9c4.1,2.8,8.3,5.7,12.3,8.6c1,0.7,1.7,0.8,2.8,0.1c6.2-4.1,12.5-8.1,18.6-12.3
	c5.9-3.9,11.8-8,17.7-12c4.1-2.8,8.3-5.6,12.4-8.4c1-0.7,2-0.1,2,1.1c0,0.9-0.2,1.8-0.5,2.7c-1.4,4.1-2.9,8.1-4.2,12.2
	c-1.3,4.1-2.4,8.2-3.7,12.3c-0.7,2.4-1.7,4.7-2.5,7.1c-0.6,1.9-1.2,3.8-1.8,5.7c-1.3,4.1-2.5,8.2-3.8,12.3c-0.3,0.9-0.8,1.6-1.1,2.5
	c-0.6,1.3-0.3,2.4,0.8,3.3c5.7,4.3,11.4,8.5,17.2,12.8c5.4,4,10.8,7.9,16.2,11.8c4.4,3.2,8.8,6.4,13.2,9.8c0.7,0.6,1.1,1.6,1.6,2.5
	c-0.8,0.3-1.7,0.9-2.5,0.9c-9.6,0.1-19.1,0-28.7,0C417.2,227.3,417.2,227.4,417.2,227.4z"/>
</svg>
