<?xml version="1.0" encoding="utf-8"?>
<!-- Generator: Adobe Illustrator 18.0.0, SVG Export Plug-In . SVG Version: 6.00 Build 0)  -->
<!DOCTYPE svg PUBLIC "-//W3C//DTD SVG 1.1//EN" "http://www.w3.org/Graphics/SVG/1.1/DTD/svg11.dtd">
<svg version="1.1" id="Layer_1" xmlns="http://www.w3.org/2000/svg" xmlns:xlink="http://www.w3.org/1999/xlink" x="0px" y="0px"
	 viewBox="0 0 500 500" enable-background="new 0 0 500 500" xml:space="preserve">
<g>
	<ellipse fill="#FFFFFF" cx="249.2" cy="240.1" rx="118.7" ry="116.8"/>
	<path fill="#312783" d="M494.6,185.8c0,2.8,0,5.6,0,8.5c-14.1,17.7-28.2,35.4-42.3,53c-5.9,7.4-12.6,14.3-17.7,22.3
		c-5.7,8.9-7.4,19.4-5.3,29.8c2.3,11.1,5.7,21.9,8.3,32.9c3.9,16.4,7.7,32.8,11.1,49.3c1.7,8.1-2.8,14.5-10.8,16.6
		c-2.7,0.7-5.6,0.8-8.3,0.8c-25.1,0.1-50.1,0.3-75.2,0c-18.5-0.2-32.8,7.2-44,21.5c-3.8,4.8-7.5,9.6-11.3,14.4
		c-12.6,15.5-24.9,31.2-38,46.4c-7.3,8.4-17.5,7.6-24.7-1c-11.3-13.7-22.5-27.6-33.7-41.4c-6-7.4-11.6-15.2-17.8-22.4
		c-9.4-10.9-21.2-17.3-35.9-17.3c-26.5-0.1-52.9,0-79.4,0c-15.2,0-21.3-7.7-17.8-22.6c5.7-24.6,11.4-49.2,17-73.9
		c3.2-14.4,0.6-27.7-8.6-39.4c-9.1-11.5-18.8-22.5-28-34C22.9,217.8,14,206,4.9,194.3c0-2.8,0-5.6,0-8.5c2.7-6,7.5-9.7,13.4-12.2
		c6.7-2.9,13.4-6,20-9.2c16.9-8.1,33.8-16.3,50.7-24.3c13.6-6.4,21.6-17.2,24.9-31.5c5.9-25.1,11.4-50.2,17.2-75.3
		c3.3-14.3,13.1-18.9,26.5-12.6c23.7,11.2,47.4,22.5,71.1,33.8c14.1,6.7,28.2,6.3,42.1-0.1c23.8-11,47.4-22.5,71.1-33.7
		c12.5-5.9,21.7-1.6,25.1,11.9c4.2,16.7,8.4,33.4,12.5,50.2c2,8.3,3.9,16.7,5.7,25.1c3.4,15.6,12.3,26.7,26.7,33.5
		c22.1,10.5,44.2,21.2,66.5,31.5C485,176,490.4,180,494.6,185.8z M249.5,123.4c-64.8-0.5-118.7,53.3-119,116.2
		C130.3,302.1,183,356.3,248,356.9c64.9,0.5,119.3-49.6,119.8-116C368.4,175.9,316.2,124,249.5,123.4z"/>
	<path fill="#312783" d="M249.5,160.9c1.2,2.3,2,4,2.9,5.6c6.8,12.8,13.6,25.6,20.5,38.2c0.7,1.3,2.6,2.6,4.1,2.9
		c15.2,2.6,30.5,4.9,45.8,7.4c1,0.2,2.1,0.3,4.5,0.7c-3.3,2.8-5.9,4.8-8.2,7.1c-9.6,9.5-19.1,19-28.5,28.6c-0.9,0.9-1.2,2.8-1,4.1
		c2.3,15.4,4.8,30.9,7.2,46.3c0.1,0.7,0.2,1.5,0.3,3c-1.9-0.9-3.2-1.6-4.6-2.2c-13.3-6.6-26.5-13.3-39.9-19.7
		c-1.8-0.8-4.6-0.8-6.4,0c-12.1,5.9-24,12.1-36,18.2c-2.6,1.3-5.4,2.3-9.2,4c2.1-10,4.2-18.8,5.9-27.7c1.4-7.7,2.7-15.4,3.5-23.2
		c0.2-1.4-1.9-3.3-3.3-4.7c-11.3-11-22.7-21.8-34.9-33.6c10.2-1.6,19-3.1,27.9-4.5c7.1-1.1,14.2-2.3,21.3-3.1
		c3.1-0.4,4.8-1.9,6.2-4.6c6.4-12.9,13-25.7,19.5-38.5C247.6,163.7,248.4,162.5,249.5,160.9z"/>
</g>
</svg>
