<?xml version="1.0" encoding="utf-8"?>
<!-- Generator: Adobe Illustrator 18.0.0, SVG Export Plug-In . SVG Version: 6.00 Build 0)  -->
<!DOCTYPE svg PUBLIC "-//W3C//DTD SVG 1.1//EN" "http://www.w3.org/Graphics/SVG/1.1/DTD/svg11.dtd">
<svg version="1.1" id="Layer_1" xmlns="http://www.w3.org/2000/svg" xmlns:xlink="http://www.w3.org/1999/xlink" x="0px" y="0px"
	 viewBox="0 0 500 500" enable-background="new 0 0 500 500" xml:space="preserve">
<g id="Layer_2">
	<g>
		<path fill="#E52420" d="M351.5,5.5c7.5,3.1,15.3,5.8,22.5,9.4c32.9,17,50.5,43.7,51.1,81.3c0.2,10.6-1.5,20,11.7,28.7
			c6.4,4.3,6.3,32.1-1,39.8c-8.1,8.7-10.6,15.2-10.6,25.3c0,94,0,187.9-0.3,281.9c0,7.7-2.1,21.1-5.6,22
			c-11.4,2.7-24.4,2.8-35.5-0.6c-3.8-1.2-5.4-15.9-4.5-24c2-18.8-5.1-23.6-23.5-23.3c-63.2,1.1-126.6,0.4-189.9,0.5
			c-5.6,0-11.1,0.8-18.9,1.3c0,9.9,0.3,18.7,0.2,27.3c-0.3,17.3-5.6,21.8-22,21.5c-16.1-0.3-26-1.2-25.8-22.1
			c1-95.8,0.2-191.8,0.6-287.7c0-12.9,0.6-18.3-15.8-21.4c-4.5-14.8-4.1-29.6-1.6-36.4c2.5-6.9,10.5-7.9,17.4-10.3
			c0-7.7-0.3-15.3,0.1-22.9c2.3-39.3,20.3-67.9,57.5-83c5.8-2.4,11.6-4.8,17.3-7.3C233.7,5.5,292.7,5.5,351.5,5.5z M411.4,422.3
			 M129.3,456.9c-6.5,0-12.6-2.4-12.6,3.4c0,5.7-9.4,16.5,0.8,16.1c4.1,0.1,11.7-2,14.3-3.8C131.6,464.3,133.2,456.9,129.3,456.9z
			 M399.6,460.3c2.3,15.9-4.7,10.1-2.5,20.6c0.1,0.4,9.6-6.4,9.9-7.5c1.5-9,4.3-12.2,3-21.1C409.5,449.5,409.2,464.4,399.6,460.3z"
			/>
		<path fill="#FFFFFF" d="M263.2,365.3c-24.3,0-48.7-0.4-72.9,0.1c-15.7,0.3-24.2-5.4-24.1-22.1c0.2-28.8,0.2-57.6,0-86.4
			c-0.1-14.2,5.9-20.8,20.8-20.7c50.5,0.4,101.1,0.4,151.6,0c14.8-0.1,21.1,6,21,20.5c-0.2,29.5-0.1,58.9,0,88.3
			c0.1,14.9-7.8,20.4-21.7,20.3C313,365.2,288.2,365.3,263.2,365.3z M330.7,252c-47.4,0-89,0-135.3,0c22.8,17.7,41.6,32.7,61,46.8
			c3,2.1,10.2,2.1,13.2-0.1C289,284.6,307.9,269.6,330.7,252z M199.9,349.2c43.2,0,84.4,0,127.1,0
			C284.9,298.9,235.8,303.4,199.9,349.2z M180.8,342.2c19.9-15.7,36-28.3,53.6-42c-19-14.4-34.7-26.4-53.6-40.7
			C180.8,288.3,180.8,312.6,180.8,342.2z M344.1,341.2c0-28.8,0-53.2,0-81.6c-18.8,14.5-34.6,26.7-52.6,40.6
			C309.2,314.1,325,326.5,344.1,341.2z"/>
		<rect x="108.9" y="448" fill="#E52420" width="30.9" height="35.8"/>
		<rect x="386.2" y="447.6" fill="#E52420" width="30.9" height="35.8"/>
	</g>
</g>
</svg>
