<?xml version="1.0" encoding="utf-8"?>
<!-- Generator: Adobe Illustrator 18.0.0, SVG Export Plug-In . SVG Version: 6.00 Build 0)  -->
<!DOCTYPE svg PUBLIC "-//W3C//DTD SVG 1.1//EN" "http://www.w3.org/Graphics/SVG/1.1/DTD/svg11.dtd">
<svg version="1.1" xmlns="http://www.w3.org/2000/svg" xmlns:xlink="http://www.w3.org/1999/xlink" x="0px" y="0px"
	 viewBox="0 0 500 500" enable-background="new 0 0 500 500" xml:space="preserve">
<g id="Layer_1">
	<path fill="#F39200" d="M250.4,499.5C113.2,499.5-0.3,386.6,0.9,249.9C2.2,111,111.8,1.1,250.9,0.9C388.5,0.6,499,112.7,499.5,250
		C500,387.1,387.6,499.6,250.4,499.5z"/>
</g>
<g id="Layer_2">
	<path fill="#FFFFFF" d="M125.8,64.9c2.9-5.1,2.9-5.1,4.7-6.9c6.1-6,11.5-1.3,13,8.8c0.4,2.5,0.4,5,0.4,7.6c0,23.9,0,47.8,0,71.7
		c0,2.1,0,4.3,0,6.8c1.9,0,8.4,0,10.5,0c0-2.1,0-4.2,0-6.3c0-25.5,0-51.1,0-76.6c0-5.2-1.5-10.2,1.5-13.8c3.2-3.9,7-5.4,11-2.8
		c4.1,2.7,4.5,7.1,4.5,13.7c0,26.6,0,53.2,0,79.9c0,1.9,0,3.9,0,6.1c2,0,7.5,0,9.6,0c0-2.2,0-4.3,0-6.4c0-25.7,0-51.4,0-77.2
		c0-5.5-1.1-10.4,2.2-14c3.3-3.5,6.9-4.6,10.7-1.9c4,2.9,4.3,7.4,4.3,13.9c0,26.4,0,52.9,0,79.3c0,2,0,3.9,0,6.1c1.9,0,7.5,0,9.6,0
		c0-1.9,0-3.8,0-5.7c0-26.4,0-52.9,0-79.3c0-11.1,5.2-18.6,12-14.9c4.4,2.4,7.1,7.1,7.2,13.7c0.1,32.4,0.4,64.8-0.1,97.2
		c-0.3,16.8-6.2,30.6-16.6,40c-6.4,5.9-13.3,10.9-20.6,16.9c0.2,4.7,0.4,10.5,0.6,16.3c0.9,28.4,1.8,56.8,2.7,85.2
		c1.2,36.5,2.3,73.1,3.7,109.6c0.2,5.3-1.1,8.7-4.3,11.1c-8.8,6.5-17.6,6.5-26.4,0c-3.2-2.4-4.6-5.8-4.3-11.1
		c1.1-28.7,2-57.5,2.9-86.3c1.2-37.4,2.5-74.9,3.7-112.3c0.1-4,0-7.9,0-11.7c-7.2-4.8-14.3-9.7-21.6-14.4
		c-10.8-7.1-17.7-18.4-20.4-34.5c-0.1-0.5-0.4-0.9-0.6-1.3C125.8,135.9,125.8,100.4,125.8,64.9z"/>
	<path fill="#FFFFFF" d="M355.2,437.2c-11.3,11.8-20.9,14.3-35.2,7.4c-6.2-3-9.8-7.2-9.2-14.9c2-27.1,3.5-54.2,5.2-81.3
		c1.4-23.3,2.8-46.6,4-69.9c0.1-1.8-0.7-3.9-1.6-5.6c-5.1-8.7-10.2-17.5-15.7-26c-19.5-30.4-27.9-63.7-25.4-99.6
		c2-28,13.4-52.3,30.8-73.9c5.2-6.4,11.4-12.1,17.3-17.9c4.1-4.1,9.4-5,14.6-2.7c5.4,2.4,8.9,6.7,9.1,13c0.5,17.9,1.2,35.8,1.7,53.7
		c1.2,49.2,1.2,98.5,2.4,147.7c1.1,44.2,0,88.3,1.2,132.5c0.1,2.3,0.6,4.6,0.8,6.9C355.2,416.9,355.2,427,355.2,437.2z"/>
</g>
</svg>
