<?xml version="1.0" encoding="utf-8"?>
<!-- Generator: Adobe Illustrator 18.0.0, SVG Export Plug-In . SVG Version: 6.00 Build 0)  -->
<!DOCTYPE svg PUBLIC "-//W3C//DTD SVG 1.1//EN" "http://www.w3.org/Graphics/SVG/1.1/DTD/svg11.dtd">
<svg version="1.1" id="Layer_1" xmlns="http://www.w3.org/2000/svg" xmlns:xlink="http://www.w3.org/1999/xlink" x="0px" y="0px"
	 viewBox="0 0 500 500" enable-background="new 0 0 500 500" xml:space="preserve">
<g id="Layer_2">
	<path fill="#FF6E0B" d="M352.4,0.9c15.8,4.8,29,13.5,39.6,26.1c8.9,10.5,14,22.3,13.9,36.4c-0.2,84-0.1,167.9-0.1,251.9
		c0,26.7-10.9,46.6-35.2,58.6c-3.8,1.9-7.6,3.7-11.4,5.4c-5,2.2-5.2,2.7-2.1,7.4c16.5,25.1,33.1,50.2,49.6,75.4
		c8.3,12.6,16.6,25.2,25.2,38.4c-2,0.1-3.3,0.3-4.7,0.3c-12.2,0-24.4-0.1-36.6,0.1c-3.3,0.1-5.2-0.9-7.1-3.7
		c-17.1-25-34.4-49.8-51.4-74.7c-1.9-2.8-3.9-4-7.5-4c-49.1,0.1-98.3,0.1-147.4,0c-3.8,0-5.8,1.4-7.8,4.3
		c-17,24.8-34.2,49.5-51.2,74.3c-1.8,2.7-3.7,3.9-7,3.8c-13.5-0.2-27-0.1-41.7-0.1c26.3-39.7,52.2-78.7,78.6-118.4
		c-3.7-1.6-7-3.2-10.4-4.5c-20.1-8-32.7-22.9-39.5-43c-1.4-4-1.3-8.7-1.3-13c-0.1-86.1,0.2-172.2-0.2-258.3
		c-0.1-19.5,8.7-33.8,22.3-46.2c8.7-8,19.2-13,30.4-16.6C216.9,0.9,284.7,0.9,352.4,0.9z M250.7,70.3c-28,0-56,0.8-84-0.3
		c-18.6-0.7-34.6,16.8-34.2,34.3c0.4,15.6,0,31.2,0.2,46.9c0,3.7,0.5,7.5,1.6,11c4.9,15,16.4,21.6,32.8,21.8
		c55.5,0.5,111,0.2,166.5,0.2c2.3,0,4.5-0.3,6.8-0.4c11.3-0.5,28.2-13.7,27.6-29.8c-0.6-17.1-0.1-34.2-0.1-51.3
		c0-18.9-13.6-32.4-32.7-32.4C307,70.2,278.9,70.3,250.7,70.3z M250.2,15.4c-10.9,0-21.8,0-32.7,0c-7.8,0-11.4,3.4-11.5,11.1
		c-0.1,6.3-0.1,12.7,0,19s5.1,11.1,11.6,11.1c22.5,0,44.9,0,67.4,0c6.7,0,9.5-2.7,9.6-9.4c0.1-7.2,0-14.3,0-21.5
		c0-7.6-2.9-10.4-10.7-10.4C272.7,15.4,261.5,15.4,250.2,15.4z M307.1,314.5c-0.2,17.7,12.5,31.1,29.6,31.4
		c17.5,0.3,30.1-12.9,30.1-31.2c0-16.6-12.6-29.3-29.2-29.5C320.6,284.9,307.2,297.8,307.1,314.5z M193.5,314.6
		c0-17.2-12.4-29.5-30-29.5c-16.1,0-29.4,13.1-29.7,29.4c-0.3,17.9,12.4,31.4,29.5,31.4C180.7,345.8,193.4,332.7,193.5,314.6z"/>
</g>
<g id="Layer_1_1_">
	<path d="M354.3,381.7c-5,2.2-0.2,0.5,2.9,5.2c16.5,25.1,33.1,50.2,49.6,75.4c8.3,12.6,16.6,25.2,25.2,38.4c-2,0.1-3.3,0.3-4.7,0.3
		c-12.2,0-24.4-0.1-36.6,0.1c-3.3,0.1-5.2-0.9-7.1-3.7c-17.1-25-34.4-49.8-51.4-74.7c-1.9-2.8-3.9-4-7.5-4
		c-49.1,0.1-98.3,0.1-147.4,0c-3.8,0-5.8,1.4-7.8,4.3c-17,24.8-34.2,49.5-51.2,74.3c-1.8,2.7-3.7,3.9-7,3.8
		c-13.5-0.2-27-0.1-41.7-0.1c26.3-39.7,52.2-78.7,78.6-118.4C144.3,380.9,358.1,380,354.3,381.7z"/>
</g>
</svg>
