<?xml version="1.0" encoding="utf-8"?>
<!-- Generator: Adobe Illustrator 18.0.0, SVG Export Plug-In . SVG Version: 6.00 Build 0)  -->
<!DOCTYPE svg PUBLIC "-//W3C//DTD SVG 1.1//EN" "http://www.w3.org/Graphics/SVG/1.1/DTD/svg11.dtd">
<svg version="1.1" xmlns="http://www.w3.org/2000/svg" xmlns:xlink="http://www.w3.org/1999/xlink" x="0px" y="0px"
	 viewBox="0 0 500 500" enable-background="new 0 0 500 500" xml:space="preserve">
<g id="Layer_2">
	<path fill="#E30613" d="M304.5,500h-109c-16.6,0-30-13.4-30-30V30.2c0-16.6,13.4-30,30-30h109c16.6,0,30,13.4,30,30V470
		C334.5,486.6,321.1,500,304.5,500z"/>
	<path fill="#E30613" d="M470,333.9H30.1c-16.6,0-30-13.4-30-30V196.1c0-16.6,13.4-30,30-30H470c16.6,0,30,13.4,30,30v107.8
		C500,320.5,486.6,333.9,470,333.9z"/>
</g>
<g id="Layer_3" display="none">
	
		<text transform="matrix(1 0 0 1 376.8174 493.1807)" display="inline" fill="#B90E0C" font-family="'MyriadPro-Regular'" font-size="227.2765">B</text>
</g>
<g id="Layer_4" display="none">
	
		<text transform="matrix(1 0 0 1 376.8174 493.1807)" display="inline" fill="#B90E0C" font-family="'MyriadPro-Regular'" font-size="227.2765">T</text>
</g>
<g id="Layer_5">
	<text transform="matrix(1 0 0 1 350.8174 493.1807)" fill="#B90E0C" font-family="'MyriadPro-Regular'" font-size="227.2765">D</text>
</g>
<g id="Layer_6" display="none">
	
		<text transform="matrix(1 0 0 1 375.8174 493.1807)" display="inline" fill="#B90E0C" font-family="'MyriadPro-Regular'" font-size="227.2765">R</text>
</g>
<g id="Layer_7" display="none">
	
		<text transform="matrix(1 0 0 1 375.8174 493.1807)" display="inline" fill="#B90E0C" font-family="'MyriadPro-Regular'" font-size="227.2765">P</text>
</g>
</svg>
