<?xml version="1.0" encoding="utf-8"?>
<!-- Generator: Adobe Illustrator 18.0.0, SVG Export Plug-In . SVG Version: 6.00 Build 0)  -->
<!DOCTYPE svg PUBLIC "-//W3C//DTD SVG 1.1//EN" "http://www.w3.org/Graphics/SVG/1.1/DTD/svg11.dtd">
<svg version="1.1" xmlns="http://www.w3.org/2000/svg" xmlns:xlink="http://www.w3.org/1999/xlink" x="0px" y="0px"
	 viewBox="0 0 500 500" enable-background="new 0 0 500 500" xml:space="preserve">
<g id="Layer_1">
	<g>
		<path fill="#E94E1B" d="M211.9,212c18.5-13.9,98.4-12.9,120.4,5.7c-39.2,18.4-37.7,55.4-41.2,89.7c-5.2,52.4-9.2,105-14,157.4
			c-0.7,8.1-3.2,16.1-4.9,24.2c-1.9,0.1-3.9,0.1-5.8,0.2c-1.8-8.7-4.4-17.3-5.2-26c-6.2-65.2-10.1-130.7-19-195.5
			C239.7,248.8,223.3,231.9,211.9,212z"/>
		<path fill="#E94E1B" d="M279.4,195.2c6.6-9.5,12.8-18.4,18.9-27.3c-1.2-1.1-2.5-2.2-3.7-3.3c-7.4,3.5-14.9,7-23.4,11.1
			c1.2-13.2,2.2-25.3,3.3-37.4c-2.2-1-4.3-2.1-6.5-3.1c-13.4,14.4-26.8,28.9-41,44.1c-15.7-10.3-23.9-31.5-13.8-56.9
			c6.3-15.9,16.4-31.2,28-43.8c19.2-20.8,34.3-42,27.2-72.9c2.4-0.2,4.8-0.3,7.1-0.5c6.7,27.5,13.4,54.9,21.6,88.8
			c2.3-7.8,3.7-12.6,5.4-18.4c6.7,16.1,10.5,27.7,16.1,38.2C339.5,152.7,323.8,186.2,279.4,195.2z"/>
	</g>
</g>
<g id="Layer_2" display="none">
	<text transform="matrix(1 0 0 1 304 487)" display="inline" fill="#AE3A12" font-family="'MyriadPro-Regular'" font-size="150">N</text>
</g>
<g id="Layer_3" display="none">
	<text transform="matrix(1 0 0 1 304 488)" display="inline" fill="#AE3A12" font-family="'MyriadPro-Regular'" font-size="150">M</text>
</g>
<g id="Layer_4">
	<text transform="matrix(1 0 0 1 304 488)" fill="#AE3A12" font-family="'MyriadPro-Regular'" font-size="150">C</text>
</g>
<g id="Layer_5" display="none">
	<text transform="matrix(1 0 0 1 304 488)" display="inline" fill="#AE3A12" font-family="'MyriadPro-Regular'" font-size="150">P</text>
</g>
<g id="Layer_6" display="none">
	<text transform="matrix(1 0 0 1 304 488)" display="inline" fill="#AE3A12" font-family="'MyriadPro-Regular'" font-size="150">O</text>
</g>
</svg>
